<?xml version="1.0" standalone="no"?>
<!DOCTYPE svg PUBLIC "-//W3C//DTD SVG 1.1//EN" "http://www.w3.org/Graphics/SVG/1.1/DTD/svg11.dtd" >
<svg xmlns="http://www.w3.org/2000/svg">
<metadata>Generated by IcoMoon</metadata>
<defs>
<font id="genee-ui-font" horiz-adv-x="1024">
<font-face units-per-em="1024" ascent="960" descent="-64" />
<missing-glyph horiz-adv-x="1024" />
<glyph unicode="&#x20;" horiz-adv-x="512" d="" />
<glyph unicode="&#xe900;" glyph-name="app-apply" d="M933.76 714.72l-401.76 232c-5.748 3.324-12.645 5.286-20 5.286s-14.252-1.962-20.196-5.39l0.196 0.104-401.76-232c-12.041-7.045-20-19.913-20-34.641 0-0.028 0-0.056 0-0.083v0.004-464c0-0.059 0-0.128 0-0.197 0-14.648 7.97-27.435 19.809-34.261l0.191-0.102 401.76-232c5.725-3.415 12.627-5.434 20-5.434s14.275 2.019 20.182 5.535l-0.182-0.1 401.76 232c12.031 6.928 20 19.715 20 34.363 0 0.069 0 0.138-0.001 0.208v-0.011 464c0 0.023 0 0.051 0 0.079 0 14.728-7.959 27.596-19.811 34.539l-0.189 0.102zM873.76 239.040l-361.76-208.8-361.76 208v418.72l361.76 208.8 361.76-208.8zM344.8 606.4c-5.503 3.034-12.063 4.82-19.040 4.82-22.102 0-40.020-17.917-40.020-40.020 0-15.125 8.391-28.291 20.772-35.096l0.207-0.104 165.28-89.28v-190.72c0-22.091 17.909-40 40-40s40 17.909 40 40v0 192l165.28 88c12.588 6.909 20.98 20.075 20.98 35.2 0 22.102-17.917 40.020-40.020 40.020-6.977 0-13.537-1.785-19.247-4.924l0.207 0.104-167.2-90.4z" />
<glyph unicode="&#xe901;" glyph-name="text-edit" d="M597.28 875.2h426.72v-85.44h-426.72v85.44zM597.28 619.2h426.72v-85.44h-426.72v85.12zM0 106.24h1024v-85.44h-1024zM85.28 789.76h85.44v-512h85.28v512h85.28v-85.76h85.44v171.2h-426.72v-171.2h85.28zM597.28 362.56h426.72v-85.44h-426.72z" />
<glyph unicode="&#xe902;" glyph-name="equip-manage" d="M912 942.88h-832c-44.183 0-80-35.817-80-80v0-680.8c0-44.183 35.817-80 80-80v0h366.080v-64h-147.52c-20.718-1.36-37.007-18.498-37.007-39.44s16.289-38.080 36.888-39.434l0.118-0.006h426.88c20.718 1.36 37.007 18.498 37.007 39.44s-16.289 38.080-36.888 39.434l-0.118 0.006h-147.52v64h366.080c44.183 0 80 35.817 80 80v0 648.96c-0.091 61.787-50.2 111.84-112 111.84 0 0 0 0 0 0v0zM944.96 487.68v-305.6c0-0.53-0.43-0.96-0.96-0.96v0h-864c-0.53 0-0.96 0.43-0.96 0.96v0 680.96c0 0.53 0.43 0.96 0.96 0.96h864c0.53 0 0.96-0.43 0.96-0.96v0zM756 613.6c-26.467 6.28-45.853 29.714-45.853 57.676 0 6.255 0.97 12.284 2.768 17.943l-0.115-0.419c1.281 4.122 2.018 8.861 2.018 13.773 0 14.391-6.333 27.302-16.364 36.1l-0.055 0.047c-26.126 22.77-56.919 40.988-90.661 52.986l-1.979 0.614c-4.69 1.681-10.1 2.653-15.738 2.653-13.781 0-26.205-5.808-34.96-15.109l-0.023-0.025c-10.733-11.607-26.041-18.851-43.040-18.851s-32.307 7.243-43.004 18.812l-0.036 0.039c-8.777 9.326-21.202 15.133-34.982 15.133-5.638 0-11.048-0.972-16.073-2.757l0.336 0.104c-35.74-12.531-66.546-30.76-92.965-53.878l0.325 0.278c-10.086-8.845-16.418-21.756-16.418-36.147 0-4.912 0.738-9.651 2.108-14.113l-0.090 0.34c1.683-5.24 2.653-11.269 2.653-17.524 0-27.962-19.386-51.396-45.451-57.595l-0.402-0.081c-18.382-4.419-32.457-18.977-36.109-37.294l-0.051-0.306c-3.201-16.040-5.062-34.504-5.12-53.393v-0.047c0.066-18.996 1.926-37.516 5.42-55.451l-0.3 1.851c3.928-18.357 17.939-32.636 35.834-36.894l0.326-0.066c16.361-3.694 29.829-13.915 37.771-27.719l0.149-0.281c4.993-8.468 7.943-18.656 7.943-29.534 0-6.25-0.974-12.272-2.778-17.923l0.115 0.417c-1.281-4.122-2.018-8.861-2.018-13.773 0-14.391 6.333-27.302 16.364-36.1l0.055-0.047c26.155-22.866 57.006-41.143 90.827-53.149l1.973-0.611c4.614-1.624 9.935-2.563 15.475-2.563 0.185 0 0.369 0.001 0.553 0.003h-0.028c13.811 0.002 26.259 5.836 35.016 15.174l0.024 0.026c10.733 11.607 26.041 18.851 43.040 18.851s32.307-7.243 43.004-18.812l0.036-0.039c8.777-9.326 21.202-15.133 34.982-15.133 5.638 0 11.048 0.972 16.073 2.757l-0.336-0.104c35.721 12.612 66.514 30.83 92.98 53.89l-0.34-0.29c10.086 8.845 16.418 21.756 16.418 36.147 0 4.912-0.738 9.651-2.108 14.113l0.090-0.34c-1.724 5.255-2.718 11.304-2.718 17.584 0 10.858 2.971 21.022 8.146 29.724l-0.148-0.268c7.945 14.028 21.245 24.239 37.052 27.924l0.388 0.076c18.382 4.419 32.457 18.977 36.109 37.294l0.051 0.306c3.178 16.076 5.038 34.594 5.12 53.532v0.068c-0.109 18.741-1.968 36.977-5.42 54.644l0.3-1.844c-3.703 18.623-17.778 33.181-35.832 37.533l-0.328 0.067zM640 352c-13.005-9.929-27.797-18.662-43.582-25.545l-1.378-0.535c-22.416 18.91-51.626 30.403-83.52 30.403s-61.104-11.493-83.715-30.563l0.195 0.16c-16.791 7.485-31.259 16.206-44.492 26.446l0.492-0.366c1.108 6.392 1.741 13.753 1.741 21.262 0 56.050-35.277 103.861-84.839 122.441l-0.902 0.296c-1.12 7.835-1.76 16.883-1.76 26.080s0.64 18.246 1.877 27.102l-0.117-1.022c50.591 18.756 85.992 66.603 85.992 122.718 0 8.030-0.725 15.891-2.113 23.52l0.12-0.798c12.885 9.945 27.505 18.769 43.092 25.837l1.388 0.563c22.416-18.91 51.626-30.403 83.52-30.403s61.104 11.493 83.715 30.563l-0.195-0.16c16.975-7.631 31.595-16.455 44.997-26.783l-0.517 0.383c-1.236-6.746-1.942-14.508-1.942-22.436 0-55.917 35.152-103.623 84.563-122.227l0.899-0.297c1.019-7.831 1.601-16.887 1.601-26.080s-0.582-18.25-1.71-27.136l0.109 1.056c-50.265-18.979-85.364-66.69-85.364-122.599 0-7.73 0.671-15.302 1.958-22.664l-0.113 0.783zM512 641.12c-65.479 0-118.56-53.081-118.56-118.56s53.081-118.56 118.56-118.56c65.479 0 118.56 53.081 118.56 118.56v0c0 65.479-53.081 118.56-118.56 118.56v0zM560 522.56c0-26.51-21.49-48-48-48s-48 21.49-48 48c0 26.51 21.49 48 48 48v0c26.51 0 48-21.49 48-48v0z" />
<glyph unicode="&#xe903;" glyph-name="approval-manage" d="M931.84 28.64h-839.68c-0.778 0.051-1.687 0.080-2.603 0.080-23.417 0-42.4-18.983-42.4-42.4s18.983-42.4 42.4-42.4c0.916 0 1.825 0.029 2.727 0.086l-0.123-0.006h839.84c0.778-0.051 1.687-0.080 2.603-0.080 23.417 0 42.4 18.983 42.4 42.4s-18.983 42.4-42.4 42.4c-0.916 0-1.825-0.029-2.727-0.086l0.123 0.006zM861.92 437.6h-214.4c7.612 38.401 25.491 71.773 50.635 98.159l-0.075-0.079c41.451 44.169 66.914 103.771 66.914 169.32 0 1.449-0.012 2.895-0.037 4.337l0.003-0.217c-1.76 126.24-112.64 237.44-242.24 242.72-3.392 0.162-7.367 0.254-11.364 0.254-67.616 0-129.079-26.346-174.683-69.332l0.127 0.119c-47.922-44.907-77.78-108.592-77.78-179.251 0-63.351 24.002-121.097 63.408-164.639l-0.187 0.21c25.25-27.888 44.042-62.099 53.724-99.958l0.356-1.642h-214.24c-0.287 0.003-0.626 0.004-0.966 0.004-61.464 0-111.363-49.51-111.994-110.824v-171.58c0.359-23.351 19.33-42.153 42.712-42.24h840.168c0.001 0 0.003 0 0.005 0 23.457 0 42.515 18.835 42.875 42.206v171.554c-0.631 61.374-50.531 110.884-111.994 110.884-0.339 0-0.679-0.002-1.017-0.005h0.052zM467.52 395.36c-1.111 77.673-31.32 148.081-80.187 201.005l0.187-0.205c-24.867 28.594-40.024 66.207-40.024 107.359 0 90.575 73.425 164 164 164 2.541 0 5.068-0.058 7.581-0.172l-0.357 0.013c86.771-3.855 156.145-73.229 159.987-159.643l0.013-0.357c0.018-0.896 0.028-1.952 0.028-3.011 0-43.569-17.073-83.15-44.893-112.418l0.065 0.069c-47.964-50.832-77.445-119.557-77.445-195.167 0-0.574 0.002-1.148 0.005-1.722v0.088c0.359-23.351 19.33-42.153 42.712-42.24h262.728c14.555-0.167 26.353-11.742 26.879-26.192l0.001-0.048v-129.12h-753.6v128.96c0.181 14.619 12.074 26.4 26.718 26.4 0.001 0 0.001 0 0.002 0h262.88c23.446 0.089 42.45 18.98 42.72 42.374v0.026z" />
<glyph unicode="&#xe904;" glyph-name="app-manage" d="M352 889.92h-176c-66.274 0-120-53.726-120-120v0-176c0.091-66.237 53.762-119.909 119.991-120h176.009c66.201 0.182 119.818 53.799 120 119.983v176.017c-0.091 66.237-53.762 119.909-119.991 120h-0.009zM392 593.92c-0.090-22.055-17.945-39.91-39.991-40h-176.009c-22.055 0.090-39.91 17.945-40 39.991v176.009c0 22.091 17.909 40 40 40v0h176c22.055-0.090 39.91-17.945 40-39.991v-0.009zM352 387.84h-176c-66.274 0-120-53.726-120-120v0-176c0.091-66.237 53.762-119.909 119.991-120h176.009c66.201 0.182 119.818 53.799 120 119.983v176.017c-0.091 66.237-53.762 119.909-119.991 120h-0.009zM392 91.84c-0.090-22.055-17.945-39.91-39.991-40h-176.009c-22.091 0-40 17.909-40 40v0 176c0 22.091 17.909 40 40 40v0h176c22.055-0.090 39.91-17.945 40-39.991v-0.009zM971.36 768.96l-135.2 135.36c-21.754 21.655-51.753 35.042-84.88 35.042s-63.126-13.387-84.885-35.047l0.005 0.004-135.36-135.36c-21.655-21.754-35.042-51.753-35.042-84.88s13.387-63.126 35.047-84.885l-0.004 0.005 135.36-135.2c21.754-21.655 51.753-35.042 84.88-35.042s63.126 13.387 84.885 35.047l-0.005-0.004 135.2 135.2c21.655 21.754 35.042 51.753 35.042 84.88s-13.387 63.126-35.047 84.885l0.004-0.005zM914.72 656l-135.2-135.2c-7.242-7.26-17.257-11.752-28.32-11.752s-21.078 4.492-28.319 11.751l-135.201 135.201c-7.221 7.26-11.685 17.269-11.685 28.32s4.464 21.060 11.687 28.322l-0.002-0.002 135.2 135.36c7.26 7.221 17.269 11.685 28.32 11.685s21.060-4.464 28.322-11.687l135.198-135.198c7.308-7.25 11.832-17.297 11.832-28.4s-4.524-21.15-11.829-28.397l-0.003-0.003zM839.2 390.080h-176c-66.201-0.182-119.818-53.799-120-119.983v-176.017c0.091-66.237 53.762-119.909 119.991-120h176.009c66.274 0 120 53.726 120 120v0 176c-0.091 66.237-53.762 119.909-119.991 120h-0.009zM880 94.080c0-22.091-17.909-40-40-40v0h-176c-22.091 0-40 17.909-40 40v0 176c0.090 22.055 17.945 39.91 39.991 40h176.009c22.055-0.090 39.91-17.945 40-39.991v-0.009z" />
<glyph unicode="&#xe905;" glyph-name="cancel" d="M557.28 448l361.28 361.44c6.493 5.879 10.555 14.341 10.555 23.751 0 17.673-14.327 32-32 32-9.37 0-17.8-4.027-23.652-10.446l-0.023-0.025-361.44-361.44-361.44 361.44c-5.651 5.117-13.182 8.249-21.445 8.249-17.673 0-32-14.327-32-32 0-8.303 3.162-15.867 8.348-21.554l-0.023 0.025 361.28-361.44-361.28-361.28c-6.493-5.879-10.555-14.341-10.555-23.751 0-17.673 14.327-32 32-32 9.37 0 17.8 4.027 23.652 10.446l0.023 0.025 361.44 361.28 361.44-361.28c5.875-6.443 14.305-10.471 23.675-10.471 17.673 0 32 14.327 32 32 0 9.41-4.062 17.871-10.528 23.727l-0.027 0.024z" />
<glyph unicode="&#xe906;" glyph-name="trash" d="M888 768h-123.36l-29.92 104.8c-3.949 13.49-16.2 23.178-30.718 23.2h-384.002c-14.52-0.022-26.771-9.71-30.663-22.974l-0.057-0.226-29.92-104.8h-123.36c-17.673 0-32-14.327-32-32s14.327-32 32-32v0h58.4l125.6-661.92c2.887-14.949 15.867-26.085 31.449-26.085 0.194 0 0.387 0.002 0.581 0.005h319.971c0.164-0.003 0.358-0.005 0.551-0.005 15.581 0 28.562 11.136 31.416 25.883l0.032 0.201 125.6 661.92h58.4c17.673 0 32 14.327 32 32s-14.327 32-32 32v0zM344 832h336l18.24-64h-372.32zM645.6 80h-267.2l-118.72 624h504.64zM512 176c8.837 0 16 7.163 16 16v0 448c0 8.837-7.163 16-16 16s-16-7.163-16-16v0-448c0-8.837 7.163-16 16-16v0zM448 176h1.12c8.36 0.582 14.922 7.506 14.922 15.964 0 0.407-0.015 0.81-0.045 1.21l0.003-0.053-32 448c-0.603 8.363-7.536 14.919-16 14.919-8.858 0-16.039-7.181-16.039-16.039 0-0.394 0.014-0.785 0.042-1.172l-0.003 0.052 32-448c0.603-8.341 7.518-14.88 15.961-14.88 0.014 0 0.028 0 0.041 0h-0.002zM574.88 176h1.12c0.012 0 0.025 0 0.039 0 8.442 0 15.358 6.539 15.958 14.828l0.003 0.052 32 448c0.027 0.346 0.042 0.749 0.042 1.156 0 8.457-6.562 15.382-14.872 15.961l-0.050 0.003c-0.346 0.027-0.749 0.042-1.156 0.042-8.457 0-15.382-6.562-15.961-14.872l-0.003-0.050-32-448c-0.027-0.346-0.042-0.749-0.042-1.156 0-8.457 6.562-15.382 14.872-15.961l0.050-0.003z" />
<glyph unicode="&#xe907;" glyph-name="history" d="M522.4 806.4c-0.346 0.001-0.755 0.002-1.164 0.002-99.508 0-189.302-41.593-252.944-108.342l-0.132-0.14c-11.096-11.463-21.582-23.724-31.285-36.608l-0.715-0.992-9.92 32c-3.628 13.985-16.138 24.145-31.021 24.145-17.673 0-32-14.327-32-32 0-3.897 0.697-7.632 1.973-11.086l-0.072 0.222 32-107.040c4.15-13.191 16.27-22.591 30.586-22.591 0.497 0 0.992 0.011 1.484 0.034l-0.070-0.003c3.315 0.036 6.506 0.501 9.541 1.342l-0.261-0.062 107.2 32c13.626 4.161 23.367 16.623 23.367 31.36 0 18.075-14.652 32.727-32.727 32.727-3.338 0-6.558-0.5-9.592-1.428l0.232 0.061-32.96-10.080c6.797 8.85 13.503 16.671 20.595 24.122l-0.115-0.122c52.514 54.767 126.282 88.8 207.998 88.8 159.058 0 288-128.942 288-288s-128.941-287.999-287.998-288v0c-0.526-0.004-1.148-0.005-1.771-0.005-81.044 0-154.195 33.795-206.13 88.061l-0.1 0.105c-15.057 15.613-28.441 33.019-39.751 51.814l-0.729 1.306c-7.385 12.136-14.375 26.256-20.147 40.987l-0.653 1.893c-4.952 12.487-9.475 27.535-12.776 43.034l-0.344 1.926c-3.764 17.465-5.92 37.528-5.92 58.095 0 0.163 0 0.327 0 0.49v-0.025c0 17.673-14.327 32-32 32s-32-14.327-32-32v0c0-0.098 0-0.215 0-0.332 0-25.2 2.622-49.787 7.608-73.504l-0.407 2.316c4.35-21.371 9.871-39.91 16.815-57.737l-0.815 2.377c7.885-20.361 16.434-37.641 26.307-54.032l-0.867 1.552c14.745-24.194 31.080-45.162 49.513-64.076l-0.073 0.076c63.659-66.979 153.407-108.643 252.886-108.643 0.476 0 0.952 0.001 1.428 0.003h-0.074c194.404 0 352 157.596 352 352s-157.596 352-352 352v0zM498.4 686.4c-17.673 0-32-14.327-32-32v0-224c0-17.673 14.327-32 32-32v0h208c17.673 0 32 14.327 32 32s-14.327 32-32 32v0h-176v192c0 17.673-14.327 32-32 32v0z" />
<glyph unicode="&#xe908;" glyph-name="gallery" d="M816 832h-608c-70.692 0-128-57.308-128-128v0-496c0-70.692 57.308-128 128-128v0h608c70.692 0 128 57.308 128 128v0 496c0 70.692-57.308 128-128 128v0zM208 768h608c35.346 0 64-28.654 64-64v0-291.84l-37.92 37.92c-23.168 23.193-55.189 37.541-90.56 37.541s-67.391-14.347-90.559-37.539l-61.441-61.441-109.44 109.44c-23.168 23.193-55.189 37.541-90.56 37.541s-67.391-14.347-90.559-37.539l-164.961-164.961v370.88c0 35.346 28.654 64 64 64v0zM144 208v34.56l210.24 210.24c11.584 11.597 27.594 18.77 45.28 18.77s33.696-7.174 45.279-18.77l308.801-308.801h-545.6c-35.346 0-64 28.654-64 64v0zM839.52 148.64l-194.72 194.72 61.44 61.44c11.584 11.597 27.594 18.77 45.28 18.77s33.696-7.174 45.279-18.77l83.201-83.201v-113.6c-0.070-26.814-16.619-49.745-40.050-59.207l-0.43-0.153zM736 632c0-30.928-25.072-56-56-56s-56 25.072-56 56c0 30.928 25.072 56 56 56s56-25.072 56-56z" />
<glyph unicode="&#xe909;" glyph-name="building" d="M123.36 94.080h779.84c0.611 0.051 1.323 0.080 2.041 0.080 14.404 0 26.080-11.676 26.080-26.080s-11.676-26.080-26.080-26.080c-0.718 0-1.43 0.029-2.134 0.086l0.093-0.006h-779.84c-0.441-0.028-0.956-0.044-1.476-0.044-13.608 0-24.64 11.032-24.64 24.64 0 0.466 0.013 0.929 0.038 1.388l-0.003-0.064c0.090 14.367 11.713 25.99 26.071 26.080h0.009zM565.28 71.36h-364c-31.2 0-52-11.2-52 20v603.2c0.329 23.642 15.133 43.743 35.936 51.868l0.384 0.132 366.72 109.28c3.643 0.886 7.826 1.394 12.128 1.394 23.012 0 42.627-14.545 50.153-34.944l0.12-0.37 2.56-5.12v-725.44c0-32-20.8-20-52-20zM201.28 694.56v-603.2h364v712.48zM305.28 613.92h156c13.498-1.092 24.039-12.315 24.039-26s-10.541-24.908-23.946-25.994l-0.093-0.006h-156c-0.444-0.029-0.962-0.045-1.485-0.045-13.608 0-24.64 11.032-24.64 24.64 0 0.522 0.016 1.041 0.048 1.555l-0.004-0.070c0.091 14.335 11.732 25.92 26.080 25.92 0 0 0 0 0.001 0v0zM461.28 561.92h-156c-0.611-0.051-1.323-0.080-2.041-0.080-14.404 0-26.080 11.676-26.080 26.080s11.676 26.080 26.080 26.080c0.718 0 1.43-0.029 2.134-0.086l-0.093 0.006h156c13.498-1.092 24.039-12.315 24.039-26s-10.541-24.908-23.946-25.994l-0.093-0.006zM305.28 588v0zM305.28 458.080h156c13.498-1.092 24.039-12.315 24.039-26s-10.541-24.908-23.946-25.994l-0.093-0.006h-156c-0.441-0.028-0.956-0.044-1.476-0.044-13.608 0-24.64 11.032-24.64 24.64 0 0.466 0.013 0.929 0.038 1.388l-0.003-0.064c0.090 14.367 11.713 25.99 26.071 26.080h0.009zM461.28 406.080h-156c-0.611-0.051-1.323-0.080-2.041-0.080-14.404 0-26.080 11.676-26.080 26.080s11.676 26.080 26.080 26.080c0.718 0 1.43-0.029 2.134-0.086l-0.093 0.006h156c13.498-1.092 24.039-12.315 24.039-26s-10.541-24.908-23.946-25.994l-0.093-0.006zM305.28 432v0zM305.28 302.080h156c13.498-1.092 24.039-12.315 24.039-26s-10.541-24.908-23.946-25.994l-0.093-0.006h-156c-0.441-0.028-0.956-0.044-1.476-0.044-13.608 0-24.64 11.032-24.64 24.64 0 0.466 0.013 0.929 0.038 1.388l-0.003-0.064c0.090 14.367 11.713 25.99 26.071 26.080h0.009zM461.28 250.080h-156c-0.611-0.051-1.323-0.080-2.041-0.080-14.404 0-26.080 11.676-26.080 26.080s11.676 26.080 26.080 26.080c0.718 0 1.43-0.029 2.134-0.086l-0.093 0.006h156c13.498-1.092 24.039-12.315 24.039-26s-10.541-24.908-23.946-25.994l-0.093-0.006zM305.28 276v0zM695.2 302.080h52c0.611 0.051 1.323 0.080 2.041 0.080 14.404 0 26.080-11.676 26.080-26.080s-11.676-26.080-26.080-26.080c-0.718 0-1.43 0.029-2.134 0.086l0.093-0.006h-52c-0.444-0.029-0.963-0.045-1.485-0.045-13.52 0-24.48 10.96-24.48 24.48 0 0.522 0.016 1.041 0.049 1.555l-0.004-0.070c0 0 0 0 0 0 0 14.347 11.585 25.989 25.911 26.079h0.009zM747.2 250.080h-52c-13.498 1.092-24.039 12.315-24.039 26s10.541 24.908 23.946 25.994l0.093 0.006h52c0.611 0.051 1.323 0.080 2.041 0.080 14.404 0 26.080-11.676 26.080-26.080s-11.676-26.080-26.080-26.080c-0.718 0-1.43 0.029-2.134 0.086l0.093-0.006zM695.2 276v0zM877.28 71.36h-260c-31.2 0-52-11.2-52 20v520l285.92-187.2c15.619-8.133 26.102-24.199 26.102-42.714 0-0.509-0.008-1.015-0.024-1.52l0.002 0.074zM617.28 517.76v-426.4h208v291.2z" />
<glyph unicode="&#xe90a;" glyph-name="voice" d="M512 272c106.039 0 192 85.961 192 192v0 240c0 106.039-85.961 192-192 192s-192-85.961-192-192v0-240c0-106.039 85.961-192 192-192v0zM384 704c0 70.692 57.308 128 128 128s128-57.308 128-128v0-240c0-70.692-57.308-128-128-128s-128 57.308-128 128v0zM800 568c-17.673 0-32-14.327-32-32v0-66.72c0-141.385-114.615-256-256-256s-256 114.615-256 256v0 66.72c0 17.673-14.327 32-32 32s-32-14.327-32-32v0-66.72c0.906-164.521 126.262-299.482 286.665-315.572l1.335-0.108v-105.6c0-17.673 14.327-32 32-32s32 14.327 32 32v0 105.6c161.738 16.199 287.094 151.16 288 315.588v66.812c0 17.673-14.327 32-32 32v0z" />
<glyph unicode="&#xe90b;" glyph-name="mobile" d="M656 896h-288c-70.692 0-128-57.308-128-128v0-640c0-70.692 57.308-128 128-128v0h288c70.692 0 128 57.308 128 128v0 640c0 70.692-57.308 128-128 128v0zM304 672h416v-448h-416zM368 832h288c35.346 0 64-28.654 64-64v0-32h-416v32c0 35.346 28.654 64 64 64v0zM656 64h-288c-35.346 0-64 28.654-64 64v0 32h416v-32c0-35.346-28.654-64-64-64v0z" />
<glyph unicode="&#xe90c;" glyph-name="message" d="M800 784h-576c-70.692 0-128-57.308-128-128v0-384c0-70.692 57.308-128 128-128v0h178.72l64-64c11.584-11.597 27.594-18.77 45.28-18.77s33.696 7.174 45.279 18.77l64.001 64.001h178.72c70.692 0 128 57.308 128 128v0 384c0 70.692-57.308 128-128 128v0zM864 272c0-35.346-28.654-64-64-64v0h-192c-8.821-0.038-16.793-3.64-22.558-9.438l-0.002-0.002-73.44-73.28-73.44 73.28c-5.767 5.8-13.739 9.402-22.553 9.44h-192.007c-35.346 0-64 28.654-64 64v0 384c0 35.346 28.654 64 64 64v0h576c35.346 0 64-28.654 64-64v0zM560 464c0-26.51-21.49-48-48-48s-48 21.49-48 48c0 26.51 21.49 48 48 48s48-21.49 48-48zM368 464c0-26.51-21.49-48-48-48s-48 21.49-48 48c0 26.51 21.49 48 48 48s48-21.49 48-48zM752 464c0-26.51-21.49-48-48-48s-48 21.49-48 48c0 26.51 21.49 48 48 48s48-21.49 48-48z" />
<glyph unicode="&#xe90d;" glyph-name="clock" d="M512 896c-247.424 0-448-200.576-448-448s200.576-448 448-448c247.424 0 448 200.576 448 448v0c0 247.424-200.576 448-448 448v0zM512 64c-212.077 0-384 171.923-384 384s171.923 384 384 384c212.077 0 384-171.923 384-384v0c0-212.077-171.923-384-384-384v0zM706.24 672l-195.68-181.76-146.4 117.76c-5.229 3.871-11.805 6.196-18.925 6.196-17.673 0-32-14.327-32-32 0-9.434 4.082-17.914 10.576-23.771l0.028-0.025 169.12-136.8 1.92-1.28 3.040-1.76v-306.56c0-8.837 7.163-16 16-16s16 7.163 16 16v0 309.6l2.080 1.6 1.28 0.96 216.48 199.84c6.544 5.95 10.636 14.497 10.636 24 0 17.892-14.504 32.396-32.396 32.396-8.389 0-16.033-3.188-21.786-8.42l0.026 0.024z" />
<glyph unicode="&#xe90e;" glyph-name="function" d="M810.080 384h-118.72c-0.048 0-0.104 0-0.16 0-65.567 0-118.72-53.153-118.72-118.72 0 0 0 0 0 0v0-118.88c0-0.047 0-0.104 0-0.16 0-65.567 53.153-118.72 118.72-118.72 0.056 0 0.112 0 0.169 0h118.711c0.047 0 0.104 0 0.16 0 65.567 0 118.72 53.153 118.72 118.72 0 0.056 0 0.112 0 0.169v-0.009 119.36c-0.273 65.361-53.321 118.24-118.719 118.24-0.057 0-0.113 0-0.17 0h0.009zM869.6 146.4c0-32.872-26.648-59.52-59.52-59.52v0h-118.72c-32.835 0.091-59.429 26.685-59.52 59.511v119.369c0.091 32.803 26.704 59.36 59.52 59.36 0 0 0 0 0 0h118.72c0.048 0 0.104 0 0.16 0 32.784 0 59.36-26.576 59.36-59.36 0 0 0 0 0 0v0zM334.72 384h-118.88c0 0 0 0 0 0-65.599 0-118.789-53.133-118.88-118.711v-118.889c0-65.656 53.224-118.88 118.88-118.88v0h118.88c65.656 0 118.88 53.224 118.88 118.88v0 119.36c-0.363 65.38-53.448 118.24-118.878 118.24-0.001 0-0.001 0-0.002 0v0zM394.080 146.4c0 0 0 0 0 0 0-32.816-26.557-59.429-59.351-59.52h-118.889c-32.803 0.091-59.36 26.704-59.36 59.52 0 0 0 0 0 0v0 119.36c0 32.784 26.576 59.36 59.36 59.36v0h118.88c32.784 0 59.36-26.576 59.36-59.36v0zM810.080 860h-118.72c-65.656 0-118.88-53.224-118.88-118.88v0-118.88c0-65.656 53.224-118.88 118.88-118.88h118.72c65.656 0 118.88 53.224 118.88 118.88v0 118.88c0 65.656-53.224 118.88-118.88 118.88v0zM869.6 622.24c0 0 0 0 0 0 0-32.784-26.576-59.36-59.36-59.36-0.056 0-0.112 0-0.169 0h-118.711c0 0 0 0 0 0-32.816 0-59.429 26.557-59.52 59.351v118.889c0.362 32.596 26.87 58.88 59.517 58.88 0.001 0 0.002 0 0.004 0h118.72c0.048 0 0.104 0 0.16 0 32.784 0 59.36-26.576 59.36-59.36 0 0 0 0 0 0v0zM334.72 860h-118.88c-65.656 0-118.88-53.224-118.88-118.88v0-118.88c0-65.656 53.224-118.88 118.88-118.88v0h118.88c65.656 0 118.88 53.224 118.88 118.88v0 118.88c0 65.656-53.224 118.88-118.88 118.88v0zM394.080 622.24c0-32.784-26.576-59.36-59.36-59.36v0h-118.88c-32.784 0-59.36 26.576-59.36 59.36v0 118.88c0.272 32.577 26.743 58.88 59.358 58.88 0.001 0 0.001 0 0.002 0h118.88c32.784 0 59.36-26.576 59.36-59.36v0z" />
<glyph unicode="&#xe90f;" glyph-name="mail" d="M912 754.88c-3.514 1.16-7.56 1.829-11.761 1.829-0.816 0-1.626-0.025-2.429-0.075l0.11 0.005h-769.92c-0.51 0.041-1.104 0.065-1.704 0.065-3.201 0-6.245-0.671-9-1.881l0.144 0.056c-30.301-4.379-53.339-30.124-53.44-61.269v-512.011c0.538-34.933 28.982-63.045 63.993-63.045 0.284 0 0.567 0.002 0.85 0.006h767.157c0.006 0 0.013 0 0.020 0 34.784 0 63.086 27.749 63.978 62.317l0.002 0.083v512c-0.023 29.641-20.192 54.565-47.553 61.819l-0.447 0.101zM803.52 693.6l-291.52-241.44-288 241.44zM896.16 181.6h-767.040v496.32l364-297.44c5.297-4.032 12.005-6.46 19.28-6.46s13.983 2.428 19.359 6.518l-0.079-0.057 364.32 297.44z" />
<glyph unicode="&#xe910;" glyph-name="equipment" d="M800 413.6c0 60.64-45.92 154.4-88.32 185.12l30.88 62.24c4.199 8.216 6.66 17.922 6.66 28.202 0 7.378-1.267 14.459-3.596 21.039l0.136-0.441c-1.422 4.474-3.158 8.34-5.27 11.959l0.15-0.279 21.12 42.72c13.44 27.040-3.68 60.8-39.52 78.72l-47.040 23.2c-11.937 6.258-26.077 9.93-41.075 9.93-0.466 0-0.931-0.004-1.395-0.011l0.070 0.001c-0.455 0.015-0.99 0.024-1.527 0.024-18.452 0-34.473-10.412-42.507-25.682l-0.126-0.263-20.96-42.24c-22.15-2.455-40.688-15.896-50.232-34.676l-0.168-0.364-116-233.76c-4.212-8.299-6.679-18.094-6.679-28.466 0-24.953 14.28-46.57 35.114-57.126l0.365-0.168 110.72-54.88c8.299-4.212 18.094-6.679 28.466-6.679 24.953 0 46.57 14.28 57.126 35.114l0.168 0.365 55.84 112c20.48-21.92 53.6-85.44 53.6-125.6 0-117.76-100.48-213.6-224-213.6-0.773-0.010-1.687-0.015-2.602-0.015-97.945 0-181.208 62.863-211.643 150.442l-0.476 1.573c-1.598 4.713-3.201 10.727-4.46 16.867l-0.18 1.053 115.52-57.12c3.963-2.119 8.668-3.363 13.664-3.363 0.146 0 0.292 0.001 0.438 0.003h-0.022c17.658 0.019 31.966 14.339 31.966 32 0 12.471-7.134 23.276-17.544 28.556l-0.182 0.084-246.24 122.56c-4.375 2.392-9.585 3.799-15.123 3.799-17.673 0-32-14.327-32-32 0-12.829 7.549-23.894 18.447-28.997l0.196-0.083 62.24-31.040c0.793-25.563 5.065-49.838 12.358-72.765l-0.518 1.885c23.169-70.038 71.054-126.55 133.087-160.385l1.473-0.735-1.12-2.24-29.28-88c-2.308-6.15-3.644-13.257-3.644-20.676 0-9.968 2.411-19.373 6.683-27.663l-0.159 0.339c10.965-20.427 32.176-34.082 56.577-34.082 0.191 0 0.382 0.001 0.572 0.003h223.971c24.58 0.011 45.919 13.876 56.632 34.21l0.168 0.35c4.087 7.967 6.482 17.381 6.482 27.355 0 7.405-1.32 14.502-3.739 21.068l0.136-0.423-29.28 88-0.96 2.080c87.053 46.912 145.467 136.99 146.559 240.81l0.001 0.15zM640.8 811.2c2.304-0.723 4.264-1.537 6.134-2.5l-0.214 0.1 47.040-23.36c2.076-1.021 3.859-2.139 5.515-3.415l-0.075 0.055-11.2-22.56-58.56 28.96zM569.28 455.68v0zM569.28 455.68l-110.56 54.88 116 233.76 110.72-54.88zM622.24 64h-220.48l28 83.84c24.621-7.494 52.921-11.819 82.229-11.84h0.011c29.361 0.011 57.721 4.277 84.503 12.215l-2.103-0.535z" />
<glyph unicode="&#xe911;" glyph-name="apply" d="M816 592c-17.673 0-32-14.327-32-32v0-416c0-17.673-14.327-32-32-32v0h-512c-17.673 0-32 14.327-32 32v0 608c0 17.673 14.327 32 32 32v0h384c17.673 0 32 14.327 32 32s-14.327 32-32 32v0h-384c-53.019 0-96-42.981-96-96v0-608c0-53.019 42.981-96 96-96v0h512c53.019 0 96 42.981 96 96v0 416c0 17.673-14.327 32-32 32v0zM496 592h-192c-17.673 0-32-14.327-32-32s14.327-32 32-32v0h192c17.673 0 32 14.327 32 32s-14.327 32-32 32v0zM272 368c0-17.673 14.327-32 32-32v0h384c17.673 0 32 14.327 32 32s-14.327 32-32 32v0h-384c-17.673 0-32-14.327-32-32v0zM910.56 862.56c-5.784 5.751-13.757 9.305-22.56 9.305s-16.776-3.555-22.562-9.307l-279.998-279.998c-6.865-5.904-11.185-14.6-11.185-24.305 0-17.673 14.327-32 32-32 9.705 0 18.401 4.321 24.27 11.143l0.035 0.042 280 280c5.751 5.784 9.305 13.757 9.305 22.56s-3.555 16.776-9.307 22.562l0.002-0.002z" />
<glyph unicode="&#xe912;" glyph-name="eye" d="M512 736c-238.72 0-448-134.56-448-288s209.28-288 448-288 448 134.56 448 288-209.28 288-448 288zM512 224c-177.6 0-384 97.92-384 224s206.4 224 384 224 384-97.92 384-224-206.4-224-384-224zM512 592c-79.529 0-144-64.471-144-144s64.471-144 144-144c79.529 0 144 64.471 144 144v0c0 79.529-64.471 144-144 144v0zM512 368c-44.183 0-80 35.817-80 80s35.817 80 80 80c44.183 0 80-35.817 80-80v0c0-44.183-35.817-80-80-80v0z" />
<glyph unicode="&#xe913;" glyph-name="add" d="M896 480h-352v352c0 17.673-14.327 32-32 32s-32-14.327-32-32v0-352h-352c-17.673 0-32-14.327-32-32s14.327-32 32-32v0h352v-352c0-17.673 14.327-32 32-32s32 14.327 32 32v0 352h352c17.673 0 32 14.327 32 32s-14.327 32-32 32v0z" />
<glyph unicode="&#xe914;" glyph-name="follow" d="M512 83.52c-0.057 0-0.124 0-0.191 0-29.958 0-56.748 13.564-74.564 34.886l-0.125 0.154-304.48 308.8c-35.016 38.98-56.43 90.795-56.43 147.612 0 31.908 6.753 62.238 18.909 89.639l-0.559-1.411c36.675 85.642 116.343 146.46 211.119 155.599l1.041 0.081c5.6 0 11.2 0 16.96 0 72.155-0.038 137.125-30.767 182.571-79.838l0.149-0.162 4.96-5.6c1.76 1.92 3.36 3.84 5.12 5.6 45.595 49.233 110.565 79.962 182.713 80h0.007c5.6 0 11.2 0 16 0 95.925-8.859 175.472-70.748 209.643-155.759l0.597-1.681c30.88-81.92 9.76-167.84-57.76-236l-280.96-306.4c-17.909-21.614-44.694-35.332-74.688-35.52h-0.032zM180.8 469.6l304.32-309.44c6.35-7.457 15.746-12.155 26.24-12.155s19.89 4.699 26.2 12.107l0.040 0.048 1.44 1.6 283.040 307.84c50.88 51.2 66.24 111.040 44.32 169.12-26.503 68.913-92.16 116.932-169.033 116.932-53.001 0-100.671-22.826-133.715-59.184l-0.132-0.148-4.96-5.6-22.56-27.040c-5.911-7.061-14.729-11.52-24.588-11.52-0.018 0-0.037 0-0.055 0h0.003c-0.015 0-0.034 0-0.052 0-9.859 0-18.677 4.459-24.547 11.47l-0.041 0.050-22.72 27.040-4.96 5.6c-33.802 36.457-81.954 59.2-135.417 59.2-0.036 0-0.072 0-0.109 0h0.006c-4.32 0-8.48 0-12.8 0-71.078-7.847-129.958-53.188-156.957-115.547l-0.483-1.253c-8.46-18.667-13.39-40.476-13.39-63.437 0-40.765 15.54-77.901 41.020-105.805l-0.11 0.122z" />
<glyph unicode="&#xe915;" glyph-name="setting" d="M381.28 22.4c-6.189 0.006-12.129 1.061-17.656 2.995l0.376-0.115c-56.136 19.803-104.533 48.41-146.139 84.619l0.539-0.459c-11.197 9.763-18.233 24.052-18.233 39.985 0 5.426 0.816 10.662 2.332 15.591l-0.099-0.375c3.571 11.081 5.629 23.829 5.629 37.058 0 59.064-41.031 108.545-96.144 121.494l-0.845 0.167c-20.308 4.775-35.864 20.867-39.787 41.11l-0.053 0.33c-5.189 25.303-8.16 54.385-8.16 84.16s2.971 58.857 8.631 86.964l-0.471-2.804c4.058 20.879 20.051 37.14 40.455 41.538l0.345 0.062c55.884 13.173 96.84 62.617 96.84 121.628 0 13.242-2.062 26.002-5.883 37.976l0.243-0.884c-1.446 4.584-2.279 9.855-2.279 15.321 0 15.909 7.058 30.17 18.213 39.822l0.066 0.056c41.067 35.75 89.464 64.357 142.488 83.196l3.112 0.964c5.212 1.917 11.23 3.026 17.508 3.026 15.139 0 28.772-6.45 38.301-16.752l0.032-0.035c22.68-24.626 55.082-40 91.074-40 0.044 0 0.089 0 0.133 0h-0.007c0.058 0 0.127 0 0.197 0 35.97 0 68.349 15.375 90.924 39.912l0.080 0.088c9.587 10.347 23.249 16.803 38.418 16.803 6.305 0 12.349-1.115 17.946-3.159l-0.364 0.116c56.127-19.844 104.518-48.445 146.146-84.625l-0.546 0.465c11.197-9.763 18.233-24.052 18.233-39.985 0-5.426-0.816-10.662-2.332-15.591l0.099 0.375c-3.515-11.014-5.541-23.682-5.541-36.824 0-59.094 40.967-108.62 96.051-121.726l0.851-0.171c20.313-4.834 35.883-20.886 39.943-41.101l0.057-0.339c5.088-25.304 7.999-54.392 7.999-84.16s-2.912-58.856-8.466-86.995l0.466 2.835c-4.117-20.554-19.687-36.606-39.64-41.367l-0.36-0.073c-55.934-13.276-96.901-62.802-96.901-121.896 0-13.142 2.026-25.81 5.783-37.71l-0.241 0.886c1.417-4.554 2.233-9.789 2.233-15.215 0-15.933-7.036-30.222-18.17-39.931l-0.063-0.054c-41.070-35.743-89.466-64.349-142.486-83.195l-3.114-0.965c-5.098-1.803-10.977-2.845-17.099-2.845-15.293 0-29.068 6.502-38.71 16.892l-0.031 0.033c-22.754 24.576-55.186 39.909-91.2 39.909s-68.447-15.333-91.126-39.828l-0.074-0.081c-9.682-10.288-23.362-16.72-38.545-16.8h-0.015zM511.040 144.96c0.252 0.001 0.55 0.002 0.848 0.002 51.665 0 98.462-20.84 132.443-54.573l-0.011 0.011c42.201 15.993 78.607 37.629 110.49 64.467l-0.57-0.467c-3.863 14.333-6.083 30.788-6.083 47.762 0 87.077 58.405 160.513 138.179 183.27l1.344 0.328c3.599 19.242 5.658 41.381 5.658 64s-2.059 44.758-5.999 66.238l0.341-2.238c-81.117 23.085-139.523 96.521-139.523 183.598 0 16.974 2.219 33.429 6.383 49.092l-0.301-1.33c-31.299 26.408-67.711 48.049-107.352 63.142l-2.568 0.858c-34.282-33.73-81.349-54.556-133.28-54.556s-98.998 20.826-133.306 54.581l0.026-0.025c-42.201-15.993-78.607-37.629-110.49-64.467l0.57 0.467c3.964-14.424 6.241-30.986 6.241-48.080 0-34.929-9.509-67.637-26.080-95.676l0.479 0.876c-24.502-43.677-64.688-76.099-112.75-89.913l-1.33-0.327c-3.497-19.242-5.496-41.387-5.496-64s2-44.758 5.831-66.269l-0.335 2.269c49.136-13.722 89.261-45.509 113.596-87.573l0.484-0.907c16.092-27.163 25.601-59.871 25.601-94.8 0-17.094-2.278-33.656-6.546-49.399l0.305 1.319c31.337-26.305 67.733-47.933 107.32-63.123l2.6-0.877c33.97 33.722 80.768 54.562 132.432 54.562 0.298 0 0.596-0.001 0.894-0.002h-0.046zM510.88 278.4c-94.286 0-170.72 76.434-170.72 170.72s76.434 170.72 170.72 170.72c94.286 0 170.72-76.434 170.72-170.72v0c-0.182-94.213-76.507-170.538-170.703-170.72h-0.017zM510.88 556.64c-59.382 0-107.52-48.138-107.52-107.52s48.138-107.52 107.52-107.52c59.382 0 107.52 48.138 107.52 107.52v0c0 59.382-48.138 107.52-107.52 107.52v0z" />
<glyph unicode="&#xe916;" glyph-name="guard" d="M525.76 0c-4.047-2.114-8.838-3.354-13.92-3.354s-9.873 1.24-14.089 3.435l0.169-0.080c-5.28 2.56-10.4 5.28-16 8.16-59.724 33.613-111.322 70.219-158.723 111.518l1.123-0.958c-110.080 96-177.12 205.44-177.12 325.28v332.32c0 0.025 0 0.055 0 0.085 0 14.53 9.984 26.729 23.466 30.109l0.214 0.045 333.44 83.36c2.26 0.534 4.854 0.84 7.52 0.84s5.26-0.306 7.75-0.885l-0.23 0.045 332.96-83.36c13.696-3.426 23.68-15.624 23.68-30.155 0-0.030 0-0.060 0-0.090v0.005-332.96c0-120-67.040-228.8-177.12-325.12-50.564-44.010-107.33-83.266-168.209-115.84l-4.911-2.4zM547.36 84.32c41.632 26.024 77.686 52.867 111.414 82.307l-1.014-0.867c97.92 85.6 155.84 179.68 155.84 278.24v308l-301.6 75.36-301.92-75.36v-308.64c0-98.56 57.92-192 155.84-278.24 42.905-37.378 90.728-71.331 141.751-100.298l4.329-2.262c10.72 5.92 22.72 12.96 35.52 21.12zM368 494.72c-5.125 3.641-11.509 5.821-18.402 5.821-17.673 0-32-14.327-32-32 0-5.916 1.605-11.456 4.404-16.211l-0.082 0.15 104-113.44c5.829-6.041 13.996-9.793 23.040-9.793s17.211 3.752 23.031 9.783l0.009 0.010 229.28 249.76c3.539 4.991 5.657 11.206 5.657 17.916 0 17.231-13.969 31.2-31.2 31.2-7.513 0-14.406-2.656-19.791-7.079l0.054 0.043-205.92-224z" />
<glyph unicode="&#xe917;" glyph-name="lock" d="M768 652.48c-12.676 131.736-122.188 234.086-255.871 235.359l-0.129 0.001c-133.812-1.274-243.323-103.624-255.918-234.305l-0.082-1.055c-68.421-17.785-118.12-79.004-118.12-151.83 0-1.241 0.014-2.479 0.043-3.713l-0.003 0.183v-281.28c0-87.36 66.4-158.56 148-158.56h452.16c81.6 0 148 71.2 148 158.56v281.28c0.025 1.051 0.040 2.289 0.040 3.53 0 72.826-49.699 134.044-117.030 151.589l-1.089 0.241zM512 827.2c99.426-0.877 181.403-74.461 195.39-170.121l0.13-1.079h-390.4c14.083 96.525 95.722 169.996 194.755 171.199l0.125 0.001zM826.72 215.84c0-54.080-39.84-97.92-88.64-97.92h-451.52c-49.562 2.653-88.746 43.488-88.746 93.474 0 1.564 0.038 3.119 0.114 4.663l-0.009-0.217v281.28c-0.067 1.327-0.106 2.882-0.106 4.446 0 49.986 39.183 90.821 88.511 93.464l0.235 0.010h451.52c48 0 88.64-43.84 88.64-97.92zM480 389.44c-8.23-8.439-13.307-19.986-13.307-32.72s5.077-24.281 13.317-32.73l-0.009 0.010c8.156-8.261 19.481-13.378 32-13.378s23.844 5.117 31.995 13.374l0.005 0.005c7.909 8.348 12.857 19.572 13.119 31.949l0.001 0.051c-0.156 12.475-5.195 23.743-13.288 32.008l0.008-0.008c-8.26 8.033-19.552 12.986-32 12.986s-23.74-4.953-32.011-12.996l0.011 0.010z" />
<glyph unicode="&#xe918;" glyph-name="menu01" d="M832 480h-640c-17.673 0-32-14.327-32-32s14.327-32 32-32v0h640c17.673 0 32 14.327 32 32s-14.327 32-32 32v0zM192 688h640c17.673 0 32 14.327 32 32s-14.327 32-32 32v0h-640c-17.673 0-32-14.327-32-32s14.327-32 32-32v0zM832 208h-640c-17.673 0-32-14.327-32-32s14.327-32 32-32v0h640c17.673 0 32 14.327 32 32s-14.327 32-32 32v0z" />
<glyph unicode="&#xe919;" glyph-name="scan01" d="M704 631.2c0.206 1.724 0.323 3.72 0.323 5.744 0 23.788-16.222 43.786-38.207 49.537l-0.356 0.079h-168s-21.12 173.92-221.28 169.92-179.2-144-179.2-144l28.96-265.6s1.28-54.080 46.080-54.080c65.92 0 55.36 83.040 56.64 138.4s48 53.92 48 53.92h395.040s32-1.28 32 46.080zM928 166.24l-28.96 265.76s-1.44 54.4-46.24 54.4c-65.76 0-55.2-83.040-56.64-138.4s-48-53.92-48-53.92h-394.56s-32 1.28-32.96-46.24c-0.254-1.913-0.399-4.124-0.399-6.37 0-23.726 16.189-43.672 38.124-49.392l0.355-0.079h169.28s20.48-173.28 220.8-169.44 179.2 143.68 179.2 143.68z" />
<glyph unicode="&#xe91a;" glyph-name="scan02" d="M160 672c0 70.692 57.308 128 128 128v0h112v64h-112c-106.039 0-192-85.961-192-192v0-112h64zM96 480h832v-64h-832v64zM736 864h-112v-64h112c70.692 0 128-57.308 128-128v0-112h64v112c0 106.039-85.961 192-192 192v0zM160 224v112h-64v-112c0-106.039 85.961-192 192-192v0h112v64h-112c-70.692 0-128 57.308-128 128v0zM864 224c0-70.692-57.308-128-128-128v0h-112v-64h112c106.039 0 192 85.961 192 192v0 112h-64z" />
<glyph unicode="&#xe91b;" glyph-name="back" d="M720 0c-8.821 0.038-16.793 3.64-22.558 9.438l-416.002 416.002c-5.751 5.784-9.305 13.757-9.305 22.56s3.555 16.776 9.307 22.562l415.998 415.998c5.559 4.783 12.847 7.695 20.815 7.695 17.673 0 32-14.327 32-32 0-7.968-2.912-15.255-7.73-20.857l0.035 0.042-393.28-393.44 393.28-393.44c5.751-5.784 9.306-13.757 9.306-22.56 0-17.626-14.25-31.923-31.858-32h-0.007z" />
<glyph unicode="&#xe91c;" glyph-name="flash" d="M801.28 522.24c-4.117 8.267-11.777 14.241-20.937 15.971l-0.183 0.029h-1.92c-2.613 0.913-5.624 1.44-8.759 1.44-0.014 0-0.029 0-0.043 0h-183.358l85.92 276.32v1.92c2.161 3.944 3.432 8.641 3.432 13.635 0 10.372-5.483 19.463-13.708 24.534l-0.124 0.071c-4.236 2.836-9.429 4.557-15.019 4.64h-0.021c-10.368-0.665-19.377-5.961-25.052-13.822l-0.068-0.098-1.28-1.44-168.8-185.92-97.6-106.72q-60.96-66.4-121.6-133.28c-5.537-6.17-8.922-14.369-8.922-23.359 0-3.070 0.395-6.047 1.136-8.884l-0.054 0.244c4.083-8.965 12.255-15.444 22.066-17.096l0.174-0.024h2.080c2.627-0.812 5.646-1.28 8.775-1.28 0.009 0 0.017 0 0.026 0h169.119l-65.76-257.12c-3.84-16-8.32-32-11.84-49.92-0.235-1.423-0.369-3.062-0.369-4.733 0-10.509 5.305-19.779 13.383-25.279l0.106-0.068c3.683-2.311 8.16-3.682 12.957-3.682 0.113 0 0.227 0.001 0.34 0.002h-0.017c4.968 0.051 9.69 1.045 14.014 2.812l-0.254-0.092c5.61 2.205 10.207 5.977 13.375 10.775l0.065 0.105 346.88 396c16 17.28 30.56 34.56 45.28 52.16 5.001 5.953 8.039 13.701 8.039 22.159 0 3.567-0.541 7.009-1.544 10.246l0.065-0.245zM721.28 463.040l-326.4-371.52q1.44 5.76 2.88 11.040l65.76 256c1.214 3.559 1.914 7.658 1.914 11.921 0 7.973-2.45 15.373-6.638 21.489l0.084-0.13c-6.89 8.578-17.363 14.035-29.112 14.080h-157.768c36.64 40.48 73.6 80 110.4 121.12l243.84 266.88-79.36-250.88c-0.036-0.24-0.056-0.518-0.056-0.8s0.020-0.56 0.059-0.831l-0.004 0.031c-0.656-2.42-1.033-5.198-1.033-8.064 0-7.283 2.433-13.997 6.53-19.375l-0.057 0.078c6.283-7.218 15.486-11.754 25.749-11.754 0.792 0 1.578 0.027 2.356 0.080l-0.105-0.006h176c-12.48-13.28-24-26.24-35.36-39.36z" />
<glyph unicode="&#xe91d;" glyph-name="user_setting" d="M920.48 297.92c-2.074 13.719-12.614 24.475-26.047 26.852l-0.193 0.028h-3.040c-0.007 0-0.014 0-0.022 0-25.714 0-46.56 20.846-46.56 46.56 0 0.506 0.008 1.011 0.024 1.513l-0.002-0.073c0.853 6.858 1.975 12.832 3.426 18.676l-0.226-1.076c1.528 3.872 2.413 8.357 2.413 13.048 0 11.53-5.349 21.811-13.701 28.496l-0.072 0.056-52.48 30.080h-14.72c-0.659 0.048-1.427 0.076-2.202 0.076-9.821 0-18.608-4.424-24.478-11.388l-0.040-0.048c-9.349-9.916-21.511-17.085-35.21-20.229l-0.47-0.091c-11.84 0-29.28 16-38.080 21.28-6.688 7.276-16.125 11.934-26.652 12.318l-0.068 0.002c-5.92 0-8.96 0-12-2.88l-56.32-29.12c-8.837-6.761-14.48-17.311-14.48-29.179 0-4.276 0.733-8.382 2.079-12.197l-0.079 0.257c1.671-5.303 2.661-11.405 2.72-17.73v-0.030c0-0.005 0-0.011 0-0.018 0-25.803-20.917-46.72-46.72-46.72-0.45 0-0.899 0.006-1.346 0.019l0.066-0.001h-2.88c-13.843-1.699-24.762-12.346-26.858-25.907l-0.022-0.173c-3.158-12.957-5.386-28.136-6.213-43.687l-0.027-0.633c-0.108-2.005-0.17-4.351-0.17-6.712 0-13.407 1.992-26.349 5.695-38.546l-0.245 0.938c2.259-13.716 12.981-24.383 26.538-26.536l0.182-0.024h3.040c0.007 0 0.014 0 0.022 0 25.714 0 46.56-20.846 46.56-46.56 0-0.506-0.008-1.011-0.024-1.513l0.002 0.073c-0.853-6.858-1.975-12.832-3.426-18.676l0.226 1.076c-1.498-3.837-2.367-8.28-2.367-12.926 0-11.509 5.33-21.773 13.655-28.459l0.071-0.055 52.16-30.080c3.51 1.799 7.657 2.853 12.051 2.853 0.94 0 1.869-0.048 2.784-0.142l-0.115 0.010c0.621-0.043 1.346-0.067 2.076-0.067 9.89 0 18.732 4.487 24.602 11.536l0.042 0.052c6.080 5.76 24 23.2 38.72 23.040 15.571-3.463 28.74-12.045 37.971-23.855l0.109-0.145c6.557-7.259 15.912-11.882 26.351-12.159l0.049-0.001c0.886-0.107 1.912-0.168 2.952-0.168 4.356 0 8.462 1.068 12.072 2.956l-0.144-0.068 53.44 28.16c9.25 6.702 15.197 17.47 15.197 29.628 0 4.348-0.761 8.519-2.157 12.386l0.080-0.254c-1.587 5.238-2.571 11.275-2.718 17.519l-0.002 0.081c0 0.005 0 0.011 0 0.018 0 25.803 20.917 46.72 46.72 46.72 0.45 0 0.899-0.006 1.346-0.019l-0.066 0.001h2.72c13.719 2.074 24.475 12.614 26.852 26.047l0.028 0.193c3.263 12.933 5.391 27.923 5.91 43.322l0.010 0.358c-4.32 12.324-7.286 26.6-8.292 41.414l-0.028 0.506zM878.080 224c-44.060-4.693-78.081-41.662-78.081-86.578 0-0.106 0-0.213 0.001-0.319v0.016c0.171-9.681 2.214-18.84 5.78-27.193l-0.18 0.473-37.6-20.16-16 14.88c-13.616 10.897-30.91 17.721-49.771 18.396l-0.149 0.004c-18.972-0.775-36.333-7.072-50.686-17.314l0.286 0.194c-5.92-5.76-12-8.64-14.88-14.56l-35.2 21.12c3.633 7.78 5.944 16.846 6.394 26.399l0.006 0.161c0.005 0.364 0.008 0.793 0.008 1.223 0 44.542-32.56 81.479-75.177 88.309l-0.511 0.068c0 5.92-2.72 17.76-2.56 29.6 0 8.8 3.2 20.64 3.36 29.44 43.988 4.767 77.925 41.701 77.925 86.561 0 0.337-0.002 0.674-0.006 1.010v-0.051c-0.087 9.674-2.139 18.846-5.774 27.167l0.174-0.447 38.72 20.16c4.164-4.667 8.961-8.649 14.283-11.846l0.277-0.154c12.906-10.254 29.087-16.91 46.755-18.223l0.285-0.017c18.166 0.684 34.747 6.949 48.216 17.116l-0.216-0.156c5.92 5.92 11.84 8.8 14.88 11.68l37.92-20.96c-3.705-7.819-6.072-16.936-6.553-26.55l-0.007-0.17c-0.008-0.445-0.013-0.971-0.013-1.497 0-44.481 32.587-81.35 75.189-88.038l0.503-0.065c0-5.92 2.72-17.76 2.56-29.44 0.668-4.383 1.049-9.44 1.049-14.587 0-5.526-0.44-10.948-1.286-16.235l0.077 0.582zM720 336c-4.989 1.091-10.719 1.716-16.596 1.716-44.801 0-81.12-36.319-81.12-81.12 0-5.876 0.625-11.607 1.812-17.129l-0.096 0.533c6.2-32.951 31.332-58.674 63.456-65.661l0.544-0.099c5.247-1.226 11.271-1.928 17.459-1.928 44.183 0 80 35.817 80 80 0 5.38-0.531 10.636-1.544 15.718l0.085-0.51c-5.037 34.146-30.541 61.16-63.458 68.38l-0.542 0.1zM704 218.080c-21.068 0.183-38.077 17.304-38.077 38.399 0 21.208 17.192 38.4 38.4 38.4s38.4-17.192 38.4-38.4c0-0.168-0.001-0.336-0.003-0.504v0.025c-0.62-20.968-17.683-37.751-38.704-37.92h-0.016zM464 112l-268.64 3.52c-0.005 0-0.011 0-0.018 0-25.803 0-46.72 20.917-46.72 46.72 0 0.45 0.006 0.899 0.019 1.346l-0.001-0.066c2.965 156.295 123.438 283.538 276.596 297.196l1.164 0.084h32.48c35.52 2.56 85.76 10.72 112 34.080l12 8.64c49.634 38.86 81.236 98.783 81.236 166.086 0 115.623-93.264 209.462-208.667 210.393l-0.088 0.001c-113.825-1.79-205.516-94.042-206.399-207.915l-0.001-0.085c-0.005-0.568-0.009-1.239-0.009-1.911 0-66.067 30.062-125.113 77.254-164.204l0.355-0.285 14.72-9.12-14.88-5.6c-134.489-51.072-228.883-177.684-231.675-326.701l-0.005-0.339c-0.014-0.619-0.022-1.349-0.022-2.080 0-54.859 44.387-99.35 99.206-99.52h0.016l268.64-3.52c13.466 1.029 24.003 12.208 24.003 25.849 0 0.137-0.001 0.275-0.003 0.412v-0.021c0.126 0.923 0.197 1.989 0.197 3.072 0 12.818-10.048 23.289-22.697 23.965l-0.060 0.003zM302.080 672c1.18 85.517 70.78 154.388 156.466 154.388 86.422 0 156.48-70.058 156.48-156.48s-70.058-156.48-156.48-156.48c-0.67 0-1.339 0.004-2.007 0.013l0.101-0.001c-85.724 1.704-154.563 71.598-154.563 157.571 0 0.348 0.001 0.695 0.003 1.043v-0.053z" />
<glyph unicode="&#xe91e;" glyph-name="starman" d="M522.080 281.76c8.708 24.902 30.719 43.001 57.296 45.893l0.304 0.027 71.040 10.4c-3.205 2.146-5.97 4.25-8.603 6.503l0.123-0.103c-14.58 12.139-24.228 29.772-25.745 49.678l-0.015 0.242c-0.121 1.803-0.19 3.909-0.19 6.031 0 6.814 0.71 13.462 2.060 19.875l-0.11-0.626c1.329 6.407 3.317 12.078 5.946 17.375l-0.186-0.415c2.072 4.65 4.817 8.624 8.163 12.003l-0.003-0.003c3.495 3.306 7.31 6.359 11.365 9.081l0.315 0.199c5.259 3.658 9.852 7.336 14.184 11.294l-0.104-0.094c4.799 4.517 8.81 9.804 11.848 15.676l0.152 0.324c3.36 6.88 6.56 13.92 9.44 21.12s5.28 16.8 7.36 25.44c6.246 1.817 11.621 4.966 16.017 9.136l-0.017-0.016c4.838 4.491 8.854 9.785 11.854 15.683l0.146 0.317c3.773 8.062 6.482 17.418 7.639 27.249l0.041 0.431c0.587 3.343 0.922 7.192 0.922 11.12s-0.335 7.777-0.979 11.521l0.057-0.401c-1.142 5.607-2.968 10.586-5.425 15.176l0.145-0.296c-1.876 4.332-5.045 7.81-9.014 10.026l-0.106 0.054c0.069 2.717 0.109 5.916 0.109 9.124 0 20.1-1.552 39.838-4.543 59.1l0.274-2.144c-3.344 22.648-8.368 42.827-15.115 62.198l0.715-2.358c-7.865 22.407-18.886 41.783-32.752 58.743l0.272-0.343c-7.020 8.598-14.907 16.079-23.642 22.47l-0.358 0.25c-9.828 7.382-20.96 14.105-32.749 19.664l-1.171 0.496c-11.584 5.763-25.158 10.851-39.295 14.546l-1.505 0.334c-13.835 3.962-29.725 6.24-46.148 6.24-0.033 0-0.065 0-0.098 0h0.005c-13.992-0.123-27.605-1.34-40.874-3.57l1.514 0.21c-15.162-2.797-28.576-6.843-41.322-12.17l1.322 0.49c-14.9-6.551-27.742-14.262-39.46-23.353l0.42 0.313c-13.629-10.383-25.225-22.538-34.695-36.271l-0.345-0.529c-10.714-15.224-19.347-32.883-24.955-51.841l-0.325-1.279c-4.999-15.862-9.2-34.858-11.803-54.359l-0.197-1.801c-2.225-15.779-3.495-34.006-3.495-52.529 0-3.64 0.049-7.268 0.147-10.884l-0.011 0.533c-4.083-4.994-7.483-10.761-9.93-17.005l-0.15-0.435c-2.105-5.955-3.483-12.838-3.833-19.99l-0.007-0.17c-0.189-1.815-0.297-3.921-0.297-6.052 0-6.816 1.104-13.373 3.143-19.504l-0.126 0.436c2.353-8.222 5.798-15.406 10.241-21.847l-0.161 0.247c3.208-4.345 6.787-8.127 10.774-11.435l0.106-0.085c3.254-2.609 7.098-4.64 11.287-5.862l0.233-0.058c2.88-8.64 5.6-17.28 8.32-25.6s5.6-13.92 9.12-20.96c2.857-6.261 6.739-11.577 11.487-15.97l0.033-0.030c9.6-7.68 17.76-16 25.28-22.24 7.608-7.966 12.413-18.667 12.798-30.486l0.002-0.074c0-8.48 0-16 0-23.36 0-0.002 0-0.005 0-0.007 0-7.407-1.349-14.499-3.816-21.044l0.136 0.411c-3.252-7.696-7.679-14.277-13.131-19.851l0.011 0.011c-7.879-7.733-16.692-14.56-26.242-20.286l-0.638-0.354c-14.341-9.28-30.982-16.645-48.752-21.187l-1.168-0.253c-19.040-5.12-102.24-33.6-120.16-39.84-17.88-5.897-33.391-14.277-47.070-24.902l0.35 0.262c-13.403-11.467-22.507-27.618-24.765-45.89l-0.035-0.35c-3.22-12.592-5.069-27.047-5.069-41.934 0-7.779 0.505-15.439 1.483-22.951l-0.094 0.886c2.88-22.4 7.52-35.84 13.6-40.32 12.472-6.307 26.946-11.057 42.193-13.489l0.847-0.111c104.104-20.976 223.856-33.081 346.4-33.28h0.16c22.72 0 44.48 0 65.44 1.44-0.57 3.487-0.896 7.505-0.896 11.6s0.326 8.113 0.953 12.031l-0.057-0.431 13.76 80.96-58.56 57.12c-13.654 12.586-22.178 30.56-22.178 50.524 0 7.325 1.147 14.382 3.272 21.002l-0.135-0.486zM935.84 251.2c9.92 9.44 7.040 18.56-6.24 20.48l-86.56 12.64c-15.085 3.122-27.532 12.474-34.746 25.184l-0.134 0.256-38.72 78.4c-2.88 5.92-6.88 8.96-10.72 8.96s-7.84-3.040-10.88-8.96l-38.56-78.4c-7.491-12.902-19.95-22.218-34.693-25.378l-0.347-0.062-86.4-12.64c-13.28-1.92-16-11.040-6.72-20.48l62.56-60.96c8.444-9.258 13.616-21.627 13.616-35.204 0-2.084-0.122-4.14-0.359-6.161l0.023 0.245-14.72-86.080c-1.6-9.6 2.080-15.2 8.8-15.2 3.206 0.12 6.17 1.056 8.72 2.605l-0.080-0.045 77.28 40.8c6.207 3.030 13.505 4.801 21.217 4.801 0.135 0 0.269-0.001 0.403-0.002h-0.021c0.249 0.005 0.542 0.007 0.836 0.007 7.488 0 14.575-1.714 20.891-4.772l-0.286 0.125 77.28-40.8c2.527-1.486 5.541-2.419 8.76-2.559l0.040-0.001c6.56 0 10.24 5.6 8.64 15.2l-14.72 86.080c-0.196 1.71-0.308 3.692-0.308 5.7 0 13.641 5.158 26.078 13.629 35.467l-0.042-0.047z" />
<glyph unicode="&#xe91f;" glyph-name="businessman" d="M862.88 197.12c-1.47 12.124-3.715 22.968-6.766 33.47l0.366-1.47c-4.487 14.381-13.045 26.405-24.315 35.078l-0.165 0.122c-11.83 8.881-25.416 16.385-39.993 21.868l-1.127 0.372c-16 5.6-32 10.72-48 16s-32 9.6-45.6 14.88c-14.025 5.008-26.133 12.065-36.655 20.944l0.175-0.144c-7.868 6.792-14.273 15.038-18.84 24.35l-0.2 0.45c-3.494 7.525-5.885 16.266-6.699 25.46l-0.021 0.3c-0.148 1.932-0.232 4.185-0.232 6.457 0 6.667 0.726 13.165 2.102 19.419l-0.11-0.596c1.088 11.489 6.075 21.644 13.606 29.286l-0.006-0.006c6.56 5.76 15.040 12.8 25.28 21.28 5.227 4.041 9.401 9.189 12.213 15.109l0.107 0.251c3.36 7.040 6.4 14.080 9.44 21.28 2.828 7.043 5.626 15.797 7.853 24.777l0.307 1.463c4.054 2.172 7.39 5.201 9.858 8.863l0.062 0.097c3.509 4.553 6.296 9.877 8.067 15.646l0.093 0.354c2.649 8.261 4.578 17.893 5.408 27.838l0.032 0.482c0.847 5.663 1.331 12.199 1.331 18.848 0 1.305-0.019 2.606-0.056 3.902l0.004-0.19c0 6.080 0 11.2-1.28 16-0.589 4.088-1.539 7.756-2.842 11.253l0.122-0.373c-1.149 24.019-3.436 46.283-6.854 68.172l0.454-3.532c-3.886 23.575-8.892 44.058-15.267 63.927l0.867-3.127c-7.227 22.652-17.693 42.323-31.052 59.648l0.332-0.448c-4.958 6.377-10.366 11.988-16.311 16.982l-0.169 0.138c-4.213 3.843-9.298 6.809-14.918 8.564l-0.282 0.076c-4.793 1.422-10.299 2.24-15.997 2.24-0.001 0-0.002 0-0.003 0h-16.96c-4.32 4.16-8.32 8.48-12.16 12.64-4.049 4.22-8.683 7.835-13.782 10.725l-0.298 0.155c-6.084 3.265-13.136 5.911-20.56 7.575l-0.56 0.105c-9.488 2.462-21.022 4.546-32.799 5.821l-1.121 0.099c-14.073-0.083-27.807-1.244-41.208-3.403l1.528 0.203c-15.474-2.473-29.304-6.373-42.424-11.665l1.304 0.465c-14.98-6.251-27.904-13.988-39.522-23.289l0.322 0.249c-13.432-10.842-25.040-23.162-34.818-36.876l-0.382-0.564c-11.613-15.641-20.59-34.025-25.83-53.925l-0.25-1.115c-4.415-15.499-8.495-34.822-11.37-54.535l-0.31-2.585c-2.241-18.731-3.52-40.423-3.52-62.414 0-0.22 0-0.441 0-0.661v0.035c-2.451-5.040-4.106-10.907-4.628-17.098l-0.012-0.182c-0.508-2.91-0.799-6.261-0.799-9.68s0.291-6.77 0.848-10.030l-0.050 0.35c1.312-9.736 3.327-18.441 6.059-26.821l-0.299 1.061c2.677-8.868 5.449-16.19 8.644-23.281l-0.484 1.201c2.192-4.831 4.328-8.819 6.684-12.658l-0.284 0.498c1.768-2.307 3.497-4.34 5.32-6.283l-0.040 0.043c2.534-10.443 5.332-19.197 8.659-27.686l-0.499 1.446c3.040-7.2 6.24-14.24 9.44-21.28 2.792-6.412 6.928-11.78 12.081-15.938l0.079-0.062q13.6-11.68 24.96-22.56c7.714-7.978 12.585-18.746 12.958-30.648l0.002-0.072c0-8.96 0.96-17.12 0.96-24.32 0.001-0.114 0.001-0.25 0.001-0.385 0-7.36-1.47-14.377-4.133-20.773l0.132 0.358c-3.415-7.707-7.995-14.285-13.595-19.835l-0.005-0.005c-7.802-7.771-16.508-14.645-25.944-20.447l-0.616-0.353c-14.643-9.569-31.691-17.016-49.937-21.377l-1.103-0.223c-19.52-4.8-38.24-10.4-56-16-17.95-6.551-33.473-15.375-47.214-26.337l0.334 0.257c-13.67-11.572-22.85-28.079-24.775-46.738l-0.025-0.302c-3.227-17.312-5.073-37.23-5.073-57.58 0-10.655 0.506-21.191 1.495-31.586l-0.102 1.326c0.066-15.007 4.723-28.913 12.637-40.402l-0.157 0.242c6.823-4.499 14.968-7.576 23.737-8.615l0.263-0.025c12.96-2.72 28.48-5.6 46.88-8.64s38.72-5.6 60.96-8 44.64-4.48 67.2-6.4 44.48-3.2 65.92-4.48 40.16-1.76 56.32-1.76 35.2 0 56.8 1.28 44 2.4 66.88 4.48 45.76 4.8 68.48 7.68 43.68 6.24 62.4 9.6c18.163 3.005 33.801 6.732 49.021 11.414l-2.621-0.694c9.019 1.973 16.835 6.248 23.060 12.178l-0.020-0.018c4.744 7.658 8.080 16.691 9.4 26.364l0.040 0.356c2.036 11.068 3.201 23.804 3.201 36.812 0 0.221 0 0.441-0.001 0.662v-0.034c-0.136 13.95-1.237 27.522-3.238 40.798l0.198-1.598zM566.88 258.88c-4.8-9.6-8.8-17.28-12.16-22.88-2.783-5.095-6.253-9.432-10.351-13.078l-0.049-0.042c1.76-6.080 3.84-14.080 6.4-24.32s4.64-20.8 6.72-32 4-20.64 5.76-29.28c1.411-5.451 2.383-11.806 2.711-18.33l0.009-0.23c-0.364-4.223-1.808-8.048-4.050-11.276l0.050 0.076c-2.936-4.783-6.214-8.926-9.921-12.641l0.001 0.001c-3.67-3.742-7.643-7.156-11.89-10.215l-0.27-0.185c-2.948-2.493-6.695-4.127-10.809-4.475l-0.071-0.005c-4.028 0.354-7.618 1.991-10.417 4.495l0.017-0.015c-4.196 3.326-7.874 7.004-11.093 11.061l-0.107 0.139c-3.68 4.64-6.72 8.96-9.44 13.12-2.259 3.030-3.759 6.748-4.153 10.791l-0.007 0.089c0.267 7.781 1.071 15.165 2.381 22.373l-0.141-0.933c1.6 9.44 3.36 19.36 5.44 29.92s4.32 20.64 6.72 30.56 3.84 17.6 5.44 22.4c-3.918 4.268-7.236 9.173-9.768 14.524l-0.152 0.356c-3.040 6.4-6.56 13.76-10.72 22.080-0.836 1.423-1.329 3.134-1.329 4.96s0.493 3.537 1.354 5.007l-0.025-0.047c1.518 3.854 3.458 7.183 5.822 10.161l-0.062-0.081c3.131 4.331 6.386 8.145 9.92 11.68v0h41.6c4.16-4.32 7.84-8.16 10.88-11.68 2.61-3.28 4.864-7.022 6.597-11.040l0.123-0.32c0.406-1.256 0.641-2.7 0.641-4.199 0-2.384-0.592-4.629-1.638-6.597l0.037 0.076z" />
<glyph unicode="&#xe920;" glyph-name="power" d="M738.88 722.72c-21.982 16.953-46.899 32.075-73.433 44.287l-2.407 0.993c-3.835 1.751-8.318 2.772-13.040 2.772-17.702 0-32.052-14.35-32.052-32.052 0-12.98 7.716-24.159 18.811-29.198l0.201-0.082c23.994-10.793 44.664-23.307 63.588-37.968l-0.708 0.528c76.066-59.086 124.543-150.567 124.543-253.371 0-174.053-138.959-315.65-311.989-319.902l-0.395-0.008c-173.356 4.344-312.228 145.907-312.228 319.906 0 102.806 48.48 194.288 123.825 252.834l0.723 0.541c18.26 14.13 38.983 26.646 61.086 36.649l1.954 0.791c11.321 5.102 19.060 16.287 19.060 29.28 0 17.684-14.336 32.020-32.020 32.020-4.691 0-9.147-1.009-13.162-2.821l0.202 0.081c-133.644-62.024-224.66-195.073-224.66-349.38 0-208.99 166.953-378.986 374.764-383.891l0.456-0.009c208.771 4.279 376.372 174.529 376.372 383.924 0 123.382-58.19 233.173-148.623 303.426l-0.869 0.65zM512 480c17.673 0 32 14.327 32 32v0 336c0 17.673-14.327 32-32 32s-32-14.327-32-32v0-336c0-17.673 14.327-32 32-32v0z" />
<glyph unicode="&#xe921;" glyph-name="app_store" d="M736 896h-448c-70.692 0-128-57.308-128-128v0-640c0-70.692 57.308-128 128-128v0h448c70.692 0 128 57.308 128 128v0 640c0 70.692-57.308 128-128 128v0zM800 128c0-35.346-28.654-64-64-64v0h-448c-35.346 0-64 28.654-64 64v0 640c0 35.346 28.654 64 64 64v0h448c35.346 0 64-28.654 64-64v0zM688 728c-17.673 0-32-14.327-32-32v0c0-66.24-64-120-144-120s-144 53.76-144 120c0 17.673-14.327 32-32 32s-32-14.327-32-32v0c0-101.44 93.28-184 208-184s208 82.56 208 184c0 17.673-14.327 32-32 32v0z" />
<glyph unicode="&#xe922;" glyph-name="exhaust" d="M533.76 471.2c-34.24 31.2-50.24 64-48.8 99.68 3.2 81.76 94.4 154.24 96 155.84 7.975 5.89 13.090 15.255 13.090 25.815 0 17.673-14.327 32-32 32-7.727 0-14.814-2.739-20.344-7.298l0.055 0.044c-4.64-3.68-116.48-91.52-121.12-203.68-2.24-55.2 21.28-105.6 69.76-149.76 29.92-27.2 43.52-55.68 41.76-86.72-4-65.28-76.96-131.2-104.8-151.040-8.188-5.872-13.46-15.362-13.46-26.082 0-17.673 14.327-32 32-32 0.119 0 0.239 0.001 0.358 0.002h-0.018c6.68 0.171 12.816 2.364 17.856 5.985l-0.096-0.065c5.12 3.52 124.96 89.76 131.68 199.2 3.68 50.88-17.28 97.44-61.92 138.080zM770.56 471.2c-34.24 31.2-50.24 64-48 99.68 3.2 81.76 94.4 154.24 96 155.84 7.975 5.89 13.090 15.255 13.090 25.815 0 17.673-14.327 32-32 32-7.727 0-14.814-2.739-20.344-7.298l0.055 0.044c-4.64-3.68-116.48-91.52-121.12-203.68-2.080-55.2 21.28-105.6 69.76-149.76 29.92-27.2 43.52-55.68 41.76-86.72-4-65.28-76.96-131.2-104.8-151.040-8.189-5.872-13.462-15.362-13.462-26.083 0-17.512 14.067-31.739 31.518-31.996h0.024c6.904 0.032 13.285 2.245 18.496 5.985l-0.096-0.065c5.12 3.52 124.96 89.76 131.68 199.2 3.040 50.88-17.12 97.44-62.56 138.080zM296.96 471.2c-34.24 31.2-50.24 64-48 99.68 3.2 81.92 94.72 154.56 96 155.84 7.975 5.89 13.090 15.255 13.090 25.815 0 17.673-14.327 32-32 32-7.727 0-14.814-2.739-20.344-7.298l0.055 0.044c-4.64-3.68-116.48-91.52-121.12-203.68-2.080-55.2 21.28-105.6 69.76-149.76 29.92-27.2 43.52-55.68 41.76-86.72-4-65.28-76.96-131.2-104.8-151.040-8.189-5.872-13.462-15.362-13.462-26.083 0-17.512 14.067-31.739 31.518-31.996h0.024c6.904 0.032 13.285 2.245 18.496 5.985l-0.096-0.065c5.12 3.52 124.96 89.76 131.68 199.2 3.040 50.88-17.92 97.44-62.56 138.080z" />
<glyph unicode="&#xe923;" glyph-name="data_analysis" d="M822.4 393.92c-34.018-0.027-64.211-16.382-83.167-41.651l-0.193-0.269-119.040 59.52c3.75 10.713 5.916 23.064 5.916 35.92s-2.166 25.207-6.154 36.707l0.237-0.787 116 57.44c19.66-24.686 49.715-40.37 83.432-40.37 58.763 0 106.4 47.637 106.4 106.4s-47.637 106.4-106.4 106.4c-58.763 0-106.4-47.637-106.4-106.4 0-13.614 2.557-26.63 7.216-38.595l-0.248 0.725-113.92-56.96c-17.311 25.35-44.213 43.056-75.369 47.919l-0.631 0.081v131.2c50.145 8.024 88 50.972 88 102.762 0 57.438-46.562 104-104 104s-104-46.562-104-104c0-51.79 37.855-94.738 87.405-102.683l0.595-0.079v-131.040c-32.472-4.456-60.078-22.27-77.514-47.621l-0.246-0.379-115.040 57.44c4.054 10.784 6.4 23.249 6.4 36.261 0 0.077 0 0.154 0 0.231v-0.012c0.002 0.271 0.004 0.59 0.004 0.911 0 59.47-48.21 107.68-107.68 107.68s-107.68-48.21-107.68-107.68c0-59.47 48.21-107.68 107.68-107.68 34.974 0 66.054 16.674 85.723 42.506l0.193 0.264 116.32-58.080c-3.456-10.308-5.45-22.177-5.45-34.512 0-0.523 0.004-1.046 0.011-1.567l-0.001 0.079c0.028-12.712 2.134-24.922 5.996-36.323l-0.236 0.803-118.56-60.48c-19.159 25.064-49.070 41.069-82.72 41.069-57.349 0-103.84-46.491-103.84-103.84s46.491-103.84 103.84-103.84c57.349 0 103.84 46.491 103.84 103.84 0 0.074 0 0.148 0 0.222v-0.012c-0.045 12.352-2.27 24.17-6.309 35.11l0.229-0.71 117.76 60.16c17.675-25.526 45.041-43.269 76.665-47.926l0.615-0.074v-122.080c-51.923-8.056-91.2-52.441-91.2-105.999 0-59.205 47.995-107.2 107.2-107.2s107.2 47.995 107.2 107.2c0 53.558-39.277 97.943-90.598 105.922l-0.602 0.077v122.080c31.312 4.717 57.92 21.815 75.126 46.053l0.234 0.347 118.56-59.2c-3.497-10.063-5.543-21.663-5.6-33.734v-0.026c0-57.438 46.562-104 104-104s104 46.562 104 104c0 57.438-46.562 104-104 104v0zM821.12 648c0.048 0 0.104 0 0.16 0 23.859 0 43.2-19.341 43.2-43.2s-19.341-43.2-43.2-43.2c-23.859 0-43.2 19.341-43.2 43.2v0c0 0 0 0 0 0 0 23.802 19.25 43.109 43.031 43.2h0.009zM204.64 561.76c-0.048 0-0.104 0-0.16 0-23.859 0-43.2 19.341-43.2 43.2s19.341 43.2 43.2 43.2c23.859 0 43.2-19.341 43.2-43.2v0c0 0 0 0 0 0 0-23.802-19.25-43.109-43.031-43.2h-0.009zM556.64 108.16c0-23.859-19.341-43.2-43.2-43.2s-43.2 19.341-43.2 43.2c0 23.859 19.341 43.2 43.2 43.2v0c0.19 0.003 0.415 0.005 0.64 0.005 23.859 0 43.2-19.341 43.2-43.2 0-0.002 0-0.003 0-0.005v0z" />
<glyph unicode="&#xe924;" glyph-name="public" d="M513.28 866.080c-0.125 0-0.273 0-0.421 0-238.587 0-432-193.413-432-432 0-119.597 48.6-227.843 127.127-306.066l0.014-0.014c5.792-5.798 13.797-9.385 22.64-9.385s16.848 3.587 22.64 9.385v0c5.798 5.792 9.385 13.797 9.385 22.64s-3.587 16.848-9.385 22.64v0c-66.723 66.616-108 158.703-108 260.43 0 203.241 164.759 368 368 368 203.111 0 367.789-164.549 368-367.611v-0.020c0.001-0.322 0.002-0.703 0.002-1.084 0-101.272-41.231-192.914-107.821-259.056l-0.020-0.020c-5.931-5.851-9.605-13.976-9.605-22.96 0-17.808 14.437-32.245 32.245-32.245 8.825 0 16.821 3.545 22.644 9.288l-0.004-0.004c78.542 78.237 127.141 186.483 127.141 306.080 0 238.587-193.413 432-432 432-0.204 0-0.409 0-0.613 0h0.032zM513.28 722.080c-0.030 0-0.066 0-0.101 0-159.058 0-288-128.942-288-288 0-53.41 14.539-103.423 39.874-146.3l-0.733 1.34c5.282-10.831 16.211-18.161 28.853-18.161 17.673 0 32 14.327 32 32 0 6.79-2.115 13.086-5.722 18.266l0.069-0.105c-19.158 32.321-30.48 71.243-30.48 112.81 0 123.712 100.288 224 224 224s224-100.288 224-224c0-41.566-11.322-80.488-31.050-113.85l0.57 1.041c-2.785-4.649-4.432-10.256-4.432-16.248 0-11.697 6.276-21.929 15.645-27.511l0.147-0.081c4.575-2.76 10.088-4.417 15.982-4.48h0.018c11.769 0.012 22.050 6.377 27.598 15.849l0.082 0.151c24.835 41.689 39.515 91.93 39.515 145.6 0 159.056-128.939 287.997-287.995 288v0zM542.56 495.040c-5.1 11.31-16.276 19.040-29.258 19.040-0.008 0-0.015 0-0.023 0h0.001c-0.007 0-0.014 0-0.022 0-12.982 0-24.158-7.73-29.177-18.838l-0.081-0.202-192-432.96c-1.768-3.848-2.8-8.348-2.8-13.090 0-12.889 7.62-23.998 18.601-29.068l0.198-0.082c3.725-1.719 8.083-2.721 12.675-2.721 0.1 0 0.2 0 0.3 0.001h-0.015c0.007 0 0.014 0 0.022 0 12.982 0 24.158 7.73 29.177 18.838l0.081 0.202 163.040 367.040 162.88-367.040c5.102-11.321 16.287-19.060 29.28-19.060 17.684 0 32.020 14.336 32.020 32.020 0 4.691-1.009 9.147-2.821 13.162l0.081-0.202z" />
<glyph unicode="&#xe925;" glyph-name="deposit" d="M360.32 492.48c-17.673 0-32-14.327-32-32s14.327-32 32-32v0h119.68v-87.68c0-17.673 14.327-32 32-32s32 14.327 32 32v0 87.68h119.68c17.673 0 32 14.327 32 32s-14.327 32-32 32v0h-119.68v70.24h119.68c17.673 0 32 14.327 32 32s-14.327 32-32 32v0h-119.68v27.84l139.52 139.52c5.794 5.794 9.378 13.799 9.378 22.64 0 17.683-14.335 32.018-32.018 32.018-8.841 0-16.846-3.584-22.64-9.378v0l-122.56-122.56c-1.104 0.304-2.372 0.478-3.68 0.478s-2.576-0.174-3.781-0.501l0.101 0.023-122.56 122.56c-5.794 5.794-13.799 9.378-22.64 9.378-17.683 0-32.018-14.335-32.018-32.018 0-8.841 3.584-16.846 9.378-22.64l139.52-139.52v-27.84h-119.68c-17.673 0-32-14.327-32-32s14.327-32 32-32v0h119.68v-70.24zM889.44 339.52c-13.589 34.568-46.005 58.904-84.293 60.474l-0.187 0.006c-36.32 0-73.12-37.76-119.84-84.8-23.906-25.483-49.077-48.982-75.728-70.738l-1.392-1.102c-33.12-24.8-108.16-36.16-167.2-40.8 45.92 72.16 30.88 92 23.040 102.56s-28.32 24.16-65.6 9.12l-250.080-100.16c-11.913-4.838-20.16-16.32-20.16-29.729 0-0.011 0-0.022 0-0.033v0.002-133.44c0-17.673 14.327-32 32-32v0h365.44c1.865-0.115 4.045-0.18 6.24-0.18s4.375 0.065 6.538 0.194l-0.298-0.014c36.8 0 133.92 12.64 260.96 125.6 102.4 90.24 105.76 156 90.56 195.040zM756.48 192c-134.4-119.52-224-109.28-224-109.28-0.768 0.079-1.659 0.124-2.56 0.124s-1.792-0.045-2.671-0.133l0.111 0.009h-335.36v80l197.76 79.040c-10.4-16-24-36.32-37.92-54.4-4.22-5.37-6.767-12.228-6.767-19.68 0-17.633 14.263-31.936 31.881-32h0.006c20 0 196.48 1.6 269.76 56.48 30.617 24.624 58.032 49.91 83.654 76.913l0.346 0.367c24.8 25.28 62.56 63.2 75.36 65.92 10.825-1.859 19.612-9.108 23.605-18.833l0.075-0.207c4-10.4 10.72-50.080-73.28-124.32z" />
<glyph unicode="&#xe926;" glyph-name="cpu" d="M320 656h384c8.837 0 16-7.163 16-16v-384c0-8.837-7.163-16-16-16h-384c-8.837 0-16 7.163-16 16v384c0 8.837 7.163 16 16 16zM896 614.4c8.837 0 16 7.163 16 16v0 51.2c0 8.837-7.163 16-16 16v0h-16v22.4c0 53.019-42.981 96-96 96v0h-84.8v16c0 8.837-7.163 16-16 16v0h-51.2c-8.837 0-16-7.163-16-16v0-16h-62.4v16c0 8.837-7.163 16-16 16v0h-51.2c-8.837 0-16-7.163-16-16v0-16h-62.4v16c0 8.837-7.163 16-16 16v0h-51.2c-8.837 0-16-7.163-16-16v0-16h-84.8c-53.019 0-96-42.981-96-96v0-22.4h-16c-8.837 0-16-7.163-16-16v0-51.2c0-8.837 7.163-16 16-16v0h16v-62.4h-16c-8.837 0-16-7.163-16-16v0-51.2c0-8.837 7.163-16 16-16v0h16v-62.4h-16c-8.837 0-16-7.163-16-16v0-51.2c0-8.837 7.163-16 16-16v0h16v-62.4h-16c-8.837 0-16-7.163-16-16v0-51.2c0-8.837 7.163-16 16-16v0h16v-1.6c0-53.019 42.981-96 96-96v0h84.8v-16c0-8.837 7.163-16 16-16v0h51.2c8.837 0 16 7.163 16 16v0 16h62.4v-16c0-8.837 7.163-16 16-16v0h51.2c8.837 0 16 7.163 16 16v0 16h62.4v-16c0-8.837 7.163-16 16-16v0h51.2c8.837 0 16 7.163 16 16v0 16h84.8c53.019 0 96 42.981 96 96v0 1.6h16c8.837 0 16 7.163 16 16v0 51.2c0 8.837-7.163 16-16 16v0h-16v62.4h16c8.837 0 16 7.163 16 16v0 51.2c0 8.837-7.163 16-16 16v0h-16v62.4h16c8.837 0 16 7.163 16 16v0 51.2c0 8.837-7.163 16-16 16v0h-16v62.4zM816 176c0-17.673-14.327-32-32-32v0h-544c-17.673 0-32 14.327-32 32v0 544c0 17.673 14.327 32 32 32v0h544c17.673 0 32-14.327 32-32v0z" />
<glyph unicode="&#xe927;" glyph-name="trend02" d="M870.080 470.080c-4.375-0.112-8.565-0.573-12.64-1.357l0.48 0.077-96 144c23.229 23.174 37.6 55.218 37.6 90.619 0 70.692-57.308 128-128 128s-128-57.308-128-128c0-35.401 14.371-67.445 37.598-90.617l0.002-0.002-204.64-330.080c-9.654 3.348-20.78 5.282-32.358 5.282-7.524 0-14.857-0.817-21.916-2.366l0.674 0.124-80 160-1.6 2.72c17.951 17.927 29.056 42.707 29.056 70.080 0 54.698-44.342 99.040-99.040 99.040s-99.040-44.342-99.040-99.040c0-54.698 44.342-99.040 99.040-99.040 0.022 0 0.045 0 0.067 0h-0.003c0.029 0 0.063 0 0.098 0 4.595 0 9.109 0.349 13.516 1.022l-0.493-0.062c0.283-1.211 0.724-2.279 1.308-3.251l-0.028 0.051 81.44-163.36c-16.866-18.422-27.2-43.067-27.2-70.127 0-57.438 46.562-104 104-104s104 46.562 104 104c0 0.073 0 0.145 0 0.218v-0.011c0 0.035 0 0.076 0 0.118 0 22.825-7.445 43.911-20.038 60.963l0.198-0.281 208 336c10.148-3.056 21.81-4.816 33.882-4.816 0.688 0 1.376 0.006 2.061 0.017l-0.103-0.001c12.675 0.056 24.893 1.922 36.437 5.354l-0.917-0.234 1.44-2.72 97.28-147.52c-4.979-9.277-7.977-20.268-8.159-31.943l-0.001-0.057c0-39.765 32.235-72 72-72s72 32.235 72 72c0 39.765-32.235 72-72 72v0zM344 160c-13.255 0-24 10.745-24 24s10.745 24 24 24c13.255 0 24-10.745 24-24v0c0-13.255-10.745-24-24-24v0zM608 704c0 35.346 28.654 64 64 64s64-28.654 64-64c0-35.346-28.654-64-64-64v0c-35.346 0-64 28.654-64 64v0z" />
<glyph unicode="&#xe928;" glyph-name="frameworks" d="M891.68 617.12c0 0.022 0 0.048 0 0.075 0 12.168-6.792 22.75-16.791 28.162l-0.169 0.084-346.72 182.88c-4.688 2.246-10.191 3.557-16 3.557s-11.312-1.312-16.228-3.655l0.228 0.098-346.080-182.88c-10.254-5.468-17.116-16.092-17.12-28.319v-371.521s0-0.8 0-1.28c-0.001-0.085-0.001-0.186-0.001-0.286 0-11.783 6.368-22.078 15.85-27.632l0.151-0.082 347.2-200.32c4.587-2.706 10.105-4.309 15.997-4.32h2.083c5.895 0.011 11.413 1.614 16.15 4.402l-0.15-0.082 346.4 200c9.638 5.635 16.009 15.932 16.009 27.718 0 0.268-0.003 0.535-0.010 0.801l0.001-0.039s0 0.96 0 1.6zM196.8 563.36l283.2-154.72v-309.6l-283.2 163.52zM512 764.32l280-147.68-280-152.64-279.52 152.8zM544 408.32l283.68 154.88v-300.64l-283.68-163.84z" />
<glyph unicode="&#xe929;" glyph-name="full_screen" d="M800 864h-240c-17.673 0-32-14.327-32-32s14.327-32 32-32v0h240c5.734-0.093 11.228-0.964 16.431-2.51l-0.431 0.11-262.56-263.040c-6.865-5.904-11.185-14.6-11.185-24.305 0-17.673 14.327-32 32-32 9.705 0 18.401 4.321 24.27 11.143l0.035 0.042 263.040 262.56c1.436-4.772 2.307-10.266 2.399-15.949l0.001-0.051v-240c0-17.673 14.327-32 32-32s32 14.327 32 32v0 240c0 70.692-57.308 128-128 128v0zM464 96h-240c-0.124-0.001-0.271-0.001-0.419-0.001-5.543 0-10.909 0.76-15.999 2.181l0.418-0.1 262.56 263.36c4.783 5.559 7.695 12.847 7.695 20.815 0 17.673-14.327 32-32 32-7.968 0-15.255-2.912-20.857-7.73l0.042 0.035-263.2-262.56c-1.338 4.775-2.15 10.273-2.239 15.947l-0.001 0.053v240c0 17.673-14.327 32-32 32s-32-14.327-32-32v0-240c0-70.692 57.308-128 128-128v0h240c17.673 0 32 14.327 32 32s-14.327 32-32 32v0z" />
<glyph unicode="&#xe92a;" glyph-name="refresh" d="M859.68 651.2c-18.142 29.591-38.558 55.198-61.714 78.034l-0.046 0.046c-5.87 6.39-14.265 10.381-23.593 10.381-17.673 0-32-14.327-32-32 0-9.447 4.094-17.938 10.604-23.795l0.029-0.026c19.496-19.337 36.683-40.952 51.143-64.425l0.857-1.495c31.633-51.039 50.381-112.945 50.381-179.231 0-189.986-154.014-344-344-344s-344 154.014-344 344c0 31.416 4.211 61.848 12.1 90.763l-0.561-2.412c31.919 117.841 121.93 209.124 236.613 242.279l2.427 0.601c15.919 4.801 34.858 8.682 54.302 10.898l1.538 0.142c11.113 1.257 23.994 1.973 37.042 1.973 6.782 0 13.518-0.194 20.204-0.576l-0.926 0.042c25.332-1.442 49.065-5.382 71.858-11.602l-2.418 0.562c1.618-0.448 3.525-0.788 5.483-0.952l0.117-0.008-34.4-24.8c-7.81-5.9-12.805-15.168-12.805-25.604 0-17.506 14.057-31.729 31.5-31.996h0.025c0.072-0.001 0.158-0.001 0.243-0.001 6.857 0 13.21 2.157 18.418 5.828l-0.101-0.068 90.88 65.44c8.107 5.88 13.319 15.322 13.319 25.981 0 7.074-2.295 13.611-6.181 18.908l0.063-0.089-66.080 90.72c-5.832 6.067-14.017 9.836-23.082 9.836-17.673 0-32-14.327-32-32 0-5.599 1.438-10.863 3.965-15.441l-0.083 0.165 16-21.28c-28.042 6.914-60.236 10.881-93.355 10.881-15.53 0-30.857-0.872-45.934-2.57l1.849 0.169c-25.126-2.451-48.021-6.854-70.118-13.152l2.758 0.672c-172.681-50.017-296.794-206.73-296.794-392.431 0-225.244 182.596-407.84 407.84-407.84s407.84 182.596 407.84 407.84c0 78.232-22.027 151.32-60.218 213.399l1.012-1.768z" />
<glyph unicode="&#xe92b;" glyph-name="search" d="M924.32 80.96l-304 304-2.56 2.080c43.746 53.348 70.262 122.287 70.262 197.418 0 172.578-139.902 312.48-312.48 312.48s-312.48-139.902-312.48-312.48c0-172.578 139.902-312.48 312.48-312.48 75.132 0 144.071 26.516 197.969 70.699l-0.55-0.438 2.080-2.4 304-304c5.662-5.163 13.226-8.325 21.529-8.325 17.673 0 32 14.327 32 32 0 8.263-3.132 15.795-8.273 21.472l0.024-0.027zM376 336c-136.967 0-248 111.033-248 248s111.033 248 248 248c136.967 0 248-111.033 248-248v0c-0.091-136.93-111.070-247.909-247.991-248h-0.009z" />
<glyph unicode="&#xe92c;" glyph-name="menu02" d="M576 448c0-35.346-28.654-64-64-64s-64 28.654-64 64c0 35.346 28.654 64 64 64s64-28.654 64-64zM576 128c0-35.346-28.654-64-64-64s-64 28.654-64 64c0 35.346 28.654 64 64 64s64-28.654 64-64zM576 768c0-35.346-28.654-64-64-64s-64 28.654-64 64c0 35.346 28.654 64 64 64s64-28.654 64-64z" />
<glyph unicode="&#xe92d;" glyph-name="menu03" d="M576 448c0-35.346-28.654-64-64-64s-64 28.654-64 64c0 35.346 28.654 64 64 64s64-28.654 64-64zM256 448c0-35.346-28.654-64-64-64s-64 28.654-64 64c0 35.346 28.654 64 64 64s64-28.654 64-64zM896 448c0-35.346-28.654-64-64-64s-64 28.654-64 64c0 35.346 28.654 64 64 64s64-28.654 64-64z" />
<glyph unicode="&#xe92e;" glyph-name="edit" d="M537.12 692.96c-0.143 0.052-0.308 0.082-0.48 0.082s-0.337-0.030-0.49-0.086l0.010 0.003-361.6-357.92-71.84-258.080c-0.809-2.586-1.275-5.559-1.275-8.64 0-16.524 13.396-29.92 29.92-29.92 0.054 0 0.109 0 0.163 0h-0.008c2.56 0 5.76 0 8.64 1.28l258.080 71.2 362.24 357.76v1.92l-48.96 48.96c-0.254 0.228-0.591 0.367-0.96 0.367s-0.706-0.139-0.961-0.368l0.001 0.001-353.6-352c-1.519-1.521-3.401-2.679-5.505-3.334l-0.095-0.026-150.56-48c-1.291-0.431-2.777-0.679-4.321-0.679-7.776 0-14.080 6.304-14.080 14.080 0 1.499 0.234 2.944 0.668 4.299l-0.028-0.1 47.040 160c0.754 2.364 1.961 4.397 3.53 6.090l-0.010-0.010 349.44 346.88v1.92l-44 43.84c-0.24 0.269-0.576 0.448-0.955 0.48h-0.005zM564.8 724.96l224-224 54.56 51.040-224 224zM650.72 800l215.2-213.92 34.4 34.72c13.74 13.727 22.24 32.698 22.24 53.654 0 0.037 0 0.075 0 0.112v-0.006c0 0.077 0 0.167 0 0.258 0 21.378-8.753 40.712-22.871 54.613l-0.010 0.010-105.6 105.44c-14.082 13.985-33.462 22.65-54.867 22.72h-0.013c-0.126 0.001-0.275 0.001-0.425 0.001-20.957 0-39.928-8.5-53.655-22.241l-0.001-0.001z" />
<glyph unicode="&#xe92f;" glyph-name="cut" d="M896 416h-768c-17.673 0-32 14.327-32 32s14.327 32 32 32v0h768c17.673 0 32-14.327 32-32s-14.327-32-32-32v0z" />
<glyph unicode="&#xe930;" glyph-name="drop_down02" d="M537.12 165.12l382.4 487.2c4.22 5.37 6.767 12.227 6.767 19.68 0 17.673-14.327 32-32 32-0.017 0-0.033 0-0.050 0h-764.477c-0.014 0-0.031 0-0.047 0-17.673 0-32-14.327-32-32 0-7.453 2.548-14.31 6.819-19.749l-0.052 0.069 382.4-487.2c5.913-7.445 14.964-12.176 25.12-12.176s19.207 4.731 25.070 12.11l0.050 0.066z" />
<glyph unicode="&#xe931;" glyph-name="home" d="M955.36 435.84l-420.16 420.32c-6.020 5.754-14.196 9.295-23.2 9.295s-17.18-3.541-23.213-9.307l0.013 0.012-420.16-420.32c-5.798-5.792-9.385-13.797-9.385-22.64s3.587-16.848 9.385-22.64v0c5.784-5.751 13.757-9.305 22.56-9.305s16.776 3.555 22.562 9.307l46.238 45.918v-275.040c0-70.692 57.308-128 128-128v0h245.12c70.692 0 128 57.308 128 128v0 178.24c0.003 0.164 0.005 0.357 0.005 0.55 0 6.456-1.912 12.465-5.2 17.492l0.075-0.122c-13.577 37.605-48.961 64-90.51 64-0.018 0-0.035 0-0.053 0h-59.837c-0.744 0.079-1.607 0.124-2.48 0.124s-1.736-0.045-2.586-0.133l0.106 0.009c-0.767 0.076-1.659 0.119-2.56 0.119s-1.793-0.043-2.672-0.127l0.112 0.009h-36.48c-53.019 0-96-42.981-96-96v0-104.96c0-17.673 14.327-32 32-32s32 14.327 32 32v0 105.28c0 17.673 14.327 32 32 32v0h36.96c0.767-0.075 1.659-0.117 2.56-0.117s1.793 0.043 2.672 0.126l-0.112-0.009c0.744-0.079 1.607-0.124 2.48-0.124s1.736 0.045 2.586 0.133l-0.106-0.009h59.52c17.673 0 32-14.327 32-32v0-164.48c0-35.346-28.654-64-64-64v0h-245.6c-35.346 0-64 28.654-64 64v0 339.040l288 288 398.24-397.92c5.784-5.751 13.757-9.305 22.56-9.305s16.776 3.555 22.562 9.307l-0.002-0.002c5.798 5.792 9.385 13.797 9.385 22.64s-3.587 16.848-9.385 22.64v0zM832 436.48c-17.673 0-32-14.327-32-32v0-243.040c0-35.346-28.654-64-64-64v0c-17.673 0-32-14.327-32-32s14.327-32 32-32v0c70.692 0 128 57.308 128 128v0 243.040c0 17.673-14.327 32-32 32v0z" />
<glyph unicode="&#xe932;" glyph-name="filter" d="M810.72 662.88v0c4.997 4.651 9.337 9.907 12.932 15.676l0.188 0.324c13.568 17.171 21.764 39.131 21.764 63.005 0 18.742-5.051 36.304-13.865 51.399l0.261-0.484c-18.546 31.84-52.522 52.9-91.417 52.9-1.612 0-3.215-0.036-4.809-0.108l0.226 0.008h-528.96c-1.565 0.086-3.396 0.136-5.239 0.136-8.476 0-16.709-1.041-24.578-3.003l0.697 0.147c-45.924-11.579-79.467-52.279-79.999-100.9l-0.001-0.060c-0.020-0.743-0.032-1.618-0.032-2.496 0-28.603 12.324-54.327 31.951-72.152l0.080-0.072c68.64-66.24 136.32-133.92 201.92-199.52l0.96-0.96v-220.16c0.829-12.365 7.37-23.046 16.982-29.513l0.138-0.087c4.274-2.26 9.342-3.587 14.72-3.587s10.446 1.327 14.895 3.671l-0.175-0.084c12.485 6.553 20.855 19.426 20.855 34.255 0 0.726-0.020 1.448-0.060 2.164l0.004-0.1v222.72c0.028 0.607 0.045 1.318 0.045 2.033 0 12.438-4.894 23.733-12.861 32.064l0.017-0.017c-32.96 32.96-65.28 67.040-96 100s-65.6 69.28-100.32 104.16l-1.28 1.28h-1.6c-1.385 1.131-2.595 2.392-3.64 3.785l-0.040 0.055-2.4 3.040c-4.225 4.663-6.812 10.879-6.812 17.699 0 3.177 0.561 6.223 1.59 9.045l-0.059-0.184c5.76 12.96 16 26.24 30.080 26.24h534.24c8.465-0.33 15.839-4.721 20.262-11.269l0.058-0.091c4.904-6.233 7.866-14.195 7.866-22.849 0-3.251-0.418-6.404-1.203-9.409l0.057 0.258c-2.026-6.524-5.883-11.986-10.968-15.946l-0.072-0.054c-73.6-71.2-144-141.44-218.24-215.84-9.65-8.425-15.777-20.676-16-34.361v-374.119c-0.034-0.587-0.053-1.273-0.053-1.964 0-9.041 3.289-17.313 8.735-23.686l-0.042 0.050v-0.96c3.169-4.526 7.757-7.868 13.111-9.399l0.169-0.041c3.808-1.344 8.198-2.12 12.771-2.12 5.375 0 10.5 1.073 15.171 3.017l-0.262-0.096 3.2 2.4c9.459 7.863 15.437 19.632 15.437 32.798 0 1.579-0.086 3.138-0.254 4.672l0.017-0.19v356.48l0.96 0.96c37.12 36.96 75.040 72.64 112 107.040s72.8 68.32 106.88 102.4zM896 176h-202.4c-0.096 0.001-0.209 0.002-0.322 0.002-16.524 0-29.92-13.396-29.92-29.92 0-0.113 0.001-0.226 0.002-0.339v0.017-9.44c-0.001-0.096-0.002-0.209-0.002-0.322 0-16.524 13.396-29.92 29.92-29.92 0.113 0 0.226 0.001 0.339 0.002h202.383c0.096-0.001 0.209-0.002 0.322-0.002 16.524 0 29.92 13.396 29.92 29.92 0 0.113-0.001 0.226-0.002 0.339v-0.017 9.44c0.045 0.595 0.070 1.29 0.070 1.99 0 15.641-12.679 28.32-28.32 28.32-0.7 0-1.395-0.025-2.082-0.075l0.092 0.005zM896 413.6h-202.4c-0.096 0.001-0.209 0.002-0.322 0.002-16.412 0-29.738-13.215-29.918-29.585v-4.817c-0.001-0.096-0.002-0.209-0.002-0.322 0-16.524 13.396-29.92 29.92-29.92 0.113 0 0.226 0.001 0.339 0.002h202.383c0.096-0.001 0.209-0.002 0.322-0.002 16.524 0 29.92 13.396 29.92 29.92 0 0.113-0.001 0.226-0.002 0.339v-0.017 4.8c0.020 0.402 0.032 0.873 0.032 1.347 0 15.641-12.679 28.32-28.32 28.32-0.687 0-1.368-0.024-2.043-0.073l0.091 0.005zM896 297.28h-202.4c-0.095 0.001-0.208 0.002-0.32 0.002-16.524 0-29.92-13.396-29.92-29.92 0-0.057 0-0.114 0-0.17v0.009-7.2c-0.001-0.096-0.002-0.21-0.002-0.324 0-16.436 13.324-29.76 29.76-29.76 0.169 0 0.338 0.001 0.507 0.004h202.375c0.143-0.002 0.312-0.004 0.482-0.004 16.436 0 29.76 13.324 29.76 29.76 0 0.114-0.001 0.228-0.002 0.341v-0.017 7.2c0 0.048 0 0.105 0 0.162 0 16.524-13.396 29.92-29.92 29.92-0.113 0-0.225-0.001-0.338-0.002h0.017z" />
<glyph unicode="&#xe933;" glyph-name="user02" d="M846.88 197.12c-1.47 12.124-3.715 22.968-6.766 33.47l0.366-1.47c-4.487 14.381-13.045 26.405-24.315 35.078l-0.165 0.122c-11.83 8.881-25.416 16.385-39.993 21.868l-1.127 0.372c-16 5.6-32 10.72-48 16s-32 9.6-45.6 14.88c-14.025 5.008-26.133 12.065-36.655 20.944l0.175-0.144c-7.868 6.792-14.273 15.038-18.84 24.35l-0.2 0.45c-3.494 7.525-5.885 16.266-6.699 25.46l-0.021 0.3c-0.148 1.932-0.232 4.185-0.232 6.457 0 6.667 0.726 13.165 2.102 19.419l-0.11-0.596c1.088 11.489 6.075 21.644 13.606 29.286l-0.006-0.006c6.56 5.76 15.040 12.8 25.28 21.28 5.227 4.041 9.401 9.189 12.213 15.109l0.107 0.251c3.36 7.040 6.4 14.080 9.44 21.28 2.828 7.043 5.626 15.797 7.853 24.777l0.307 1.463c4.054 2.172 7.39 5.201 9.858 8.863l0.062 0.097c3.509 4.553 6.296 9.877 8.067 15.646l0.093 0.354c2.649 8.261 4.578 17.893 5.408 27.838l0.032 0.482c0.847 5.663 1.331 12.199 1.331 18.848 0 1.305-0.019 2.606-0.056 3.902l0.004-0.19c0 6.080 0 11.2-1.28 16-0.589 4.088-1.539 7.756-2.842 11.253l0.122-0.373c-1.149 24.019-3.436 46.283-6.854 68.172l0.454-3.532c-3.886 23.575-8.892 44.058-15.267 63.927l0.867-3.127c-7.227 22.652-17.693 42.323-31.052 59.648l0.332-0.448c-4.958 6.377-10.366 11.988-16.311 16.982l-0.169 0.138c-4.213 3.843-9.298 6.809-14.918 8.564l-0.282 0.076c-4.793 1.422-10.299 2.24-15.997 2.24-0.001 0-0.002 0-0.003 0h-16.96c-4.32 4.16-8.32 8.48-12.16 12.64-4.049 4.22-8.683 7.835-13.782 10.725l-0.298 0.155c-6.084 3.265-13.136 5.911-20.56 7.575l-0.56 0.105c-9.488 2.462-21.022 4.546-32.799 5.821l-1.121 0.099c-14.073-0.083-27.807-1.244-41.208-3.403l1.528 0.203c-15.474-2.473-29.304-6.373-42.424-11.665l1.304 0.465c-14.98-6.251-27.904-13.988-39.522-23.289l0.322 0.249c-13.432-10.842-25.040-23.162-34.818-36.876l-0.382-0.564c-11.613-15.641-20.59-34.025-25.83-53.925l-0.25-1.115c-4.415-15.499-8.495-34.822-11.37-54.535l-0.31-2.585c-2.241-18.731-3.52-40.423-3.52-62.414 0-0.22 0-0.441 0-0.661v0.035c-2.451-5.040-4.106-10.907-4.628-17.098l-0.012-0.182c-0.508-2.91-0.799-6.261-0.799-9.68s0.291-6.77 0.848-10.030l-0.050 0.35c1.312-9.736 3.327-18.441 6.059-26.821l-0.299 1.061c2.677-8.868 5.449-16.19 8.644-23.281l-0.484 1.201c2.192-4.831 4.328-8.819 6.684-12.658l-0.284 0.498c1.768-2.307 3.497-4.34 5.32-6.283l-0.040 0.043c2.534-10.443 5.332-19.197 8.659-27.686l-0.499 1.446c3.040-7.2 6.24-14.24 9.44-21.28 2.792-6.412 6.928-11.78 12.081-15.938l0.079-0.062q13.6-11.68 24.96-22.56c7.714-7.978 12.585-18.746 12.958-30.648l0.002-0.072c0-8.96 0.96-17.12 0.96-24.32 0.001-0.114 0.001-0.25 0.001-0.385 0-7.36-1.47-14.377-4.133-20.773l0.132 0.358c-3.415-7.707-7.995-14.285-13.595-19.835l-0.005-0.005c-7.802-7.771-16.508-14.645-25.944-20.447l-0.616-0.353c-14.643-9.569-31.691-17.016-49.937-21.377l-1.103-0.223c-19.52-4.8-38.24-10.4-56-16-17.95-6.551-33.473-15.375-47.214-26.337l0.334 0.257c-13.67-11.572-22.85-28.079-24.775-46.738l-0.025-0.302c-3.227-17.312-5.073-37.23-5.073-57.58 0-10.655 0.506-21.191 1.495-31.586l-0.102 1.326c0.066-15.007 4.723-28.913 12.637-40.402l-0.157 0.242c6.823-4.499 14.968-7.576 23.737-8.615l0.263-0.025c12.96-2.72 28.48-5.6 46.88-8.64s38.72-5.6 60.96-8 44.64-4.48 67.2-6.4 44.48-3.2 65.92-4.48 40.16-1.76 56.32-1.76 35.2 0 56.8 1.28 44 2.4 66.88 4.48 45.76 4.8 68.48 7.68 43.68 6.24 62.4 9.6c18.163 3.005 33.801 6.732 49.021 11.414l-2.621-0.694c9.019 1.973 16.835 6.248 23.060 12.178l-0.020-0.018c4.744 7.658 8.080 16.691 9.4 26.364l0.040 0.356c2.036 11.068 3.201 23.804 3.201 36.812 0 0.221 0 0.441-0.001 0.662v-0.034c-0.136 13.95-1.237 27.522-3.238 40.798l0.198-1.598zM550.88 258.88c-4.8-9.6-8.8-17.28-12.16-22.88-2.783-5.095-6.253-9.432-10.351-13.078l-0.049-0.042c1.76-6.080 3.84-14.080 6.4-24.32s4.64-20.8 6.72-32 4-20.64 5.76-29.28c1.411-5.451 2.383-11.806 2.711-18.33l0.009-0.23c-0.364-4.223-1.808-8.048-4.050-11.276l0.050 0.076c-2.936-4.783-6.214-8.926-9.921-12.641l0.001 0.001c-3.67-3.742-7.643-7.156-11.89-10.215l-0.27-0.185c-2.948-2.493-6.695-4.127-10.809-4.475l-0.071-0.005c-4.028 0.354-7.618 1.991-10.417 4.495l0.017-0.015c-4.196 3.326-7.874 7.004-11.093 11.061l-0.107 0.139c-3.68 4.64-6.72 8.96-9.44 13.12-2.259 3.030-3.759 6.748-4.153 10.791l-0.007 0.089c0.267 7.781 1.071 15.165 2.381 22.373l-0.141-0.933c1.6 9.44 3.36 19.36 5.44 29.92s4.32 20.64 6.72 30.56 3.84 17.6 5.44 22.4c-3.918 4.268-7.236 9.173-9.768 14.524l-0.152 0.356c-3.040 6.4-6.56 13.76-10.72 22.080-0.836 1.423-1.329 3.134-1.329 4.96s0.493 3.537 1.354 5.007l-0.025-0.047c1.518 3.854 3.458 7.183 5.822 10.161l-0.062-0.081c3.131 4.331 6.386 8.145 9.92 11.68v0h41.6c4.16-4.32 7.84-8.16 10.88-11.68 2.61-3.28 4.864-7.022 6.597-11.040l0.123-0.32c0.406-1.256 0.641-2.7 0.641-4.199 0-2.384-0.592-4.629-1.638-6.597l0.037 0.076z" />
<glyph unicode="&#xe934;" glyph-name="move" d="M912 420l32 28-32 28v4h-4.64l-91.36 80v-80h-272v272h80l-112 128-112-128h80v-272h-272v80l-128-112 128-112v80h272v-272h-80l112-128 112 128h-80v272h272v-80l91.36 80h4.64v4z" />
<glyph unicode="&#xe935;" glyph-name="table02" d="M853.6 866.4h-683.2c-42.415 0-76.8-34.385-76.8-76.8v0-683.2c0-42.415 34.385-76.8 76.8-76.8h683.2c42.415 0 76.8 34.385 76.8 76.8v0 683.2c0 42.415-34.385 76.8-76.8 76.8v0zM598.88 296.96v-203.2h-173.76v203.2zM598.88 564.32v-203.2h-173.76v203.2zM866.24 628.32h-708.48v153.44c0 11.311 9.169 20.48 20.48 20.48h667.52c11.311 0 20.48-9.169 20.48-20.48v0zM360.96 564.32v-203.2h-203.2v203.2zM360.96 296.96v-203.2h-182.72c-11.311 0-20.48 9.169-20.48 20.48v0 182.72zM663.040 296.96h203.2v-182.72c0-11.311-9.169-20.48-20.48-20.48v0h-182.72zM866.24 564.32v-203.2h-203.2v203.2z" />
<glyph unicode="&#xe936;" glyph-name="pie_chart" d="M929.12 536.48c-40.48 191.84-198.56 333.28-385.12 343.52l11.84-397.92zM933.6 469.12l-341.6-47.68 297.28-176c28.286 57.74 44.866 125.643 44.96 197.408v0.032c0.106 2.449 0.167 5.321 0.167 8.207 0 6.349-0.293 12.629-0.866 18.828l0.059-0.795zM486.4 561.12l-9.44 317.12c-211.040-22.56-374.24-211.040-374.24-436.48 0-241.92 186.88-438.72 416-438.72 140.446 1.303 263.823 73.201 336.506 181.877l0.934 1.483-364.64 233.92z" />
<glyph unicode="&#xe937;" glyph-name="bar_chart" d="M944 125.28h-818.24v684.8c0 17.673-14.327 32-32 32s-32-14.327-32-32v0-716.48c0.069-8.291 3.281-15.818 8.499-21.461l-0.019 0.021 0.96-0.96c0.244-0.344 0.568-0.617 0.945-0.794l0.015-0.006c5.538-5.242 13.031-8.469 21.278-8.48h850.562c17.673 0 32 14.327 32 32s-14.327 32-32 32v0zM268 168.16c26.51 0 48 21.49 48 48v0 215.84c0 26.51-21.49 48-48 48s-48-21.49-48-48v0-216c0.091-26.441 21.546-47.84 48-47.84 0 0 0 0 0 0v0zM464 168.16c26.51 0 48 21.49 48 48v0 452.96c0 26.51-21.49 48-48 48s-48-21.49-48-48v0-452.96c0-26.51 21.49-48 48-48v0zM659.2 168.16c26.51 0 48 21.49 48 48v0 292.96c0 26.51-21.49 48-48 48s-48-21.49-48-48v0-292.96c0-26.51 21.49-48 48-48v0zM854.72 168.16c26.51 0 48 21.49 48 48v0 389.92c0 26.51-21.49 48-48 48s-48-21.49-48-48v0-389.92c0-26.51 21.49-48 48-48v0z" />
<glyph unicode="&#xe938;" glyph-name="line_chart" d="M935.68 127.2h-817.6v684.96c0 17.673-14.327 32-32 32s-32-14.327-32-32v0-716.16c0.069-8.291 3.281-15.818 8.499-21.461l-0.019 0.021 0.96-0.96s0 0 0.96 0c5.598-5.715 13.312-9.337 21.872-9.599l0.048-0.001h849.28c17.673 0 32 14.327 32 32s-14.327 32-32 32v0zM250.88 248c0.336-0.005 0.733-0.008 1.131-0.008 41.792 0 75.754 33.52 76.469 75.141l0.001 0.067c-0.073 8.397-1.592 16.416-4.318 23.853l0.158-0.493 131.84 131.84c8.015-3.056 17.285-4.826 26.967-4.826 11.193 0 21.833 2.365 31.449 6.622l-0.496-0.196 52.96-53.12c-3.634-8.255-5.752-17.879-5.76-27.997v-0.003c0-42.857 34.743-77.6 77.6-77.6s77.6 34.743 77.6 77.6v0c-0.142 8.409-1.655 16.419-4.322 23.881l0.162-0.521 131.84 132c8.153-3.26 17.598-5.19 27.483-5.28h0.037c40.486 1.333 72.8 34.474 72.8 75.162 0 41.532-33.668 75.2-75.2 75.2s-75.2-33.668-75.2-75.2c0-0.043 0-0.086 0-0.128v0.007c-0.004-0.293-0.007-0.639-0.007-0.986 0-11.259 2.539-21.926 7.077-31.458l-0.19 0.443-128-128c-10.403 5.611-22.768 8.909-35.903 8.909-10.477 0-20.464-2.098-29.564-5.897l0.507 0.188-52.8 52.96c3.634 8.306 5.752 17.985 5.76 28.157v0.003c0 42.857-34.743 77.6-77.6 77.6s-77.6-34.743-77.6-77.6v0c0.036-11.176 2.63-21.738 7.227-31.143l-0.187 0.423-128-128c-10.073 5.123-21.962 8.134-34.552 8.16h-0.008c-1.035 0.051-2.248 0.080-3.468 0.080-41.532 0-75.2-33.668-75.2-75.2s33.668-75.2 75.2-75.2c1.22 0 2.433 0.029 3.638 0.086l-0.17-0.006z" />
<glyph unicode="&#xe939;" glyph-name="word" d="M940 167.040h-850.080c-17.673 0-32-14.327-32-32s14.327-32 32-32v0h850.080c17.673 0 32 14.327 32 32s-14.327 32-32 32v0zM784 500.8c-60 0-107.36-10.72-140.16-32-35.657-19.922-59.37-57.434-59.37-100.484 0-2.194 0.062-4.373 0.183-6.536l-0.013 0.3c-0.027-0.874-0.042-1.903-0.042-2.934 0-32.933 15.596-62.224 39.804-80.889l0.238-0.176c24.433-19.147 55.612-30.705 89.49-30.705 2.29 0 4.567 0.053 6.831 0.157l-0.321-0.012c61.481 0.069 116.804 26.379 155.383 68.329l0.137 0.151v-28c1.181-15.728 14.232-28.042 30.16-28.042s28.979 12.314 30.154 27.941l0.006 0.101v228.8c0.147 2.548 0.231 5.529 0.231 8.529 0 38.79-14 74.311-37.223 101.784l0.192-0.233c-27.36 32-70.24 47.2-128 47.2-2.663 0.129-5.783 0.203-8.92 0.203-38.167 0-73.784-10.918-103.898-29.802l0.818 0.478c-24.819-15.253-43.808-37.912-54.1-64.867l-0.3-0.893c-1.274-3.135-2.014-6.771-2.014-10.58 0-5.888 1.767-11.364 4.8-15.926l-0.066 0.106c5.22-8.175 13.978-13.693 24.063-14.395l0.097-0.005c0.674-0.053 1.46-0.084 2.252-0.084 12.88 0 23.879 8.052 28.238 19.397l0.070 0.207c6.709 17.922 18.906 32.498 34.517 42.034l0.363 0.206c18.798 11.459 41.537 18.243 65.859 18.243 2.273 0 4.531-0.059 6.775-0.176l-0.314 0.013c69.92 0 103.84-33.28 103.84-101.44v-14.56zM874.24 417.76c0-27.36-14.56-53.44-43.52-77.28-26.665-23.806-62.029-38.366-100.793-38.4h-0.007c-1.033-0.039-2.246-0.061-3.464-0.061-21.297 0-41.022 6.733-57.162 18.187l0.306-0.206c-12.976 9.602-21.296 24.854-21.296 42.049 0 0.461 0.006 0.921 0.018 1.379l-0.001-0.068c0 56.48 45.28 84.16 138.24 84.96l88 1.28zM114.56 256c3.299-1.371 7.132-2.168 11.15-2.168 12.249 0 22.77 7.401 27.335 17.975l0.074 0.193 55.84 139.68h252.64l56-139.68c4.534-10.778 15.006-18.208 27.213-18.208 4.035 0 7.88 0.812 11.381 2.28l-0.194-0.072c10.747 4.697 18.121 15.235 18.121 27.495 0 3.985-0.779 7.788-2.193 11.265l0.072-0.2-193.92 485.92c-6.716 17.040-23.005 28.892-42.072 28.96h-0.008c-0.158 0.002-0.345 0.003-0.533 0.003-19.168 0-35.563-11.868-42.24-28.656l-0.108-0.307-195.040-486.080c-1.324-3.238-2.092-6.994-2.092-10.931 0-12.375 7.594-22.976 18.375-27.397l0.197-0.072zM336 727.84l102.56-256h-205.92z" />
<glyph unicode="&#xe93a;" glyph-name="number" d="M936.64 165.6h-849.28c-17.673 0-32-14.327-32-32s14.327-32 32-32v0h849.28c17.673 0 32 14.327 32 32s-14.327 32-32 32v0zM100 687.040h45.92v-400c0-18.999 15.401-34.4 34.4-34.4s34.4 15.401 34.4 34.4v0 432.96s0 0 0 0.96 0 0.8 0 1.12c-0.090 18.962-15.438 34.31-34.391 34.4h-80.009c-18.999 0-34.4-15.401-34.4-34.4s15.401-34.4 34.4-34.4v0zM302.56 570.56c0.058 0 0.126-0.001 0.194-0.001 16.433 0 29.973 12.387 31.792 28.333l0.014 0.147c2.878 26.984 13.204 51.122 28.856 70.842l-0.216-0.282c13.334 18.152 34.598 29.803 58.583 29.803 1.906 0 3.795-0.074 5.665-0.218l-0.248 0.015c1.595 0.107 3.457 0.168 5.333 0.168 21.726 0 41.536-8.201 56.504-21.676l-0.076 0.068c13.602-14.449 21.96-33.968 21.96-55.439 0-1.999-0.072-3.981-0.215-5.944l0.015 0.263c-0.441-30.968-12.53-59.029-32.070-80.076l0.070 0.076c-20.701-20.744-43.065-39.809-66.883-56.984l-1.597-1.096c-37.088-27.124-69.347-57.453-97.536-91.291l-0.704-0.869c-16.406-18.685-29.472-40.773-37.974-65.007l-0.426-1.393c-1.516-4.59-2.39-9.873-2.39-15.36 0-27.864 22.54-50.463 50.38-50.56h224.009c18.292 0 33.12 14.828 33.12 33.12s-14.828 33.12-33.12 33.12v0h-196.64c12.48 31.040 45.28 67.36 90.4 99.52 35.062 24.174 65.762 49.845 93.906 78.066l0.014 0.014c28.209 30.948 45.552 72.229 45.76 117.558v0.042c0.050 1.418 0.079 3.084 0.079 4.757 0 39.994-16.304 76.179-42.628 102.273l-0.010 0.010c-26.971 25.034-63.224 40.395-103.066 40.395-1.679 0-3.352-0.027-5.017-0.081l0.243 0.006c-1.46 0.052-3.175 0.082-4.897 0.082-44.281 0-83.966-19.681-110.783-50.773l-0.159-0.189c-24.2-28.715-39.866-65.334-42.687-105.496l-0.033-0.584c-0.147-1.153-0.231-2.487-0.231-3.841 0-17.673 14.327-32 32-32 0.081 0 0.163 0 0.244 0.001h-0.012zM658.4 289.6c28.013-22.885 64.173-36.751 103.572-36.751 2.12 0 4.231 0.040 6.331 0.12l-0.303-0.009c1.931-0.082 4.197-0.129 6.473-0.129 43.396 0 82.824 16.988 111.998 44.676l-0.071-0.067c26.682 26.158 43.221 62.576 43.221 102.857 0 2.541-0.066 5.066-0.196 7.574l0.015-0.351c0.045 1.244 0.071 2.705 0.071 4.173 0 27.547-9.1 52.969-24.458 73.423l0.227-0.316c-11.053 15.040-25.273 27.109-41.732 35.376l-0.668 0.304c37.92 20.48 57.28 56.16 57.28 106.24 0.151 2.33 0.237 5.052 0.237 7.794 0 36.769-15.504 69.918-40.331 93.264l-0.066 0.062c-27.513 22.996-63.266 36.96-102.28 36.96-2.518 0-5.023-0.058-7.513-0.173l0.353 0.013c-1.829 0.081-3.975 0.126-6.132 0.126-39.915 0-76.159-15.716-102.883-41.298l0.054 0.052c-22.999-22.112-39.325-51.012-45.753-83.471l-0.167-1.009c-0.445-2.002-0.701-4.301-0.701-6.66 0-7.551 2.615-14.491 6.99-19.964l-0.049 0.064c5.914-7.343 14.903-12.001 24.981-12.001 0.105 0 0.21 0.001 0.315 0.002h-0.016c0.055 0 0.119-0.001 0.184-0.001 14.656 0 27.010 9.852 30.802 23.295l0.054 0.225c5.074 20.695 15.442 38.491 29.589 52.469l0.011 0.011c14.95 14.131 35.176 22.818 57.43 22.818 2.312 0 4.603-0.094 6.868-0.278l-0.298 0.019c30.24 0 51.2-6.080 64-18.72 12.459-14.040 20.069-32.628 20.069-52.993 0-1.17-0.025-2.334-0.075-3.492l0.006 0.165c0.013-0.516 0.020-1.124 0.020-1.733 0-21.069-8.777-40.089-22.874-53.602l-0.026-0.025c-15.278-12.006-34.789-19.255-55.992-19.255-2.198 0-4.379 0.078-6.538 0.231l0.29-0.017h-12.96c-15.728-1.181-28.042-14.232-28.042-30.16s12.314-28.979 27.941-30.154l0.101-0.006h14.88c2.047 0.158 4.432 0.248 6.839 0.248 22.669 0 43.469-8.004 59.727-21.34l-0.166 0.132c15.421-14.253 25.045-34.585 25.045-57.164 0-1.279-0.031-2.55-0.092-3.814l0.007 0.178c0-0.016 0-0.034 0-0.053 0-24.928-10.019-47.516-26.25-63.957l0.010 0.010c-17.851-17.785-42.478-28.781-69.672-28.781-24.969 0-47.773 9.27-65.158 24.556l0.11-0.095c-17.197 15.577-29.293 36.503-33.658 60.138l-0.102 0.662c-2.83 15.311-16.079 26.754-32 26.754-17.957 0-32.514-14.557-32.514-32.514 0-2.036 0.187-4.028 0.545-5.96l-0.031 0.2c6.164-39.493 25.364-73.677 52.982-98.756l0.138-0.124z" />
<glyph unicode="&#xe93b;" glyph-name="export" d="M290.24 552.16h138.56v-280.16c0-7.069 5.731-12.8 12.8-12.8v0h140.8c7.069 0 12.8 5.731 12.8 12.8v0 280.16h138.56c0.073-0.002 0.16-0.002 0.246-0.002 6.981 0 12.64 5.659 12.64 12.64 0 3.194-1.185 6.111-3.139 8.337l0.012-0.014-221.76 260.8c-2.388 2.723-5.874 4.433-9.76 4.433s-7.372-1.71-9.747-4.419l-0.013-0.015-221.76-260.8c-1.942-2.211-3.126-5.128-3.126-8.322 0-6.981 5.659-12.64 12.64-12.64 0.087 0 0.173 0.001 0.259 0.003h-0.013zM928 373.44c0 17.982-14.578 32.56-32.56 32.56s-32.56-14.578-32.56-32.56v0-251.040h-701.76v251.040c0 17.673-14.327 32-32 32v0h-1.12c-17.673 0-32-14.327-32-32v0-279.52c0-22.091 17.909-40 40-40v0h752c22.091 0 40 17.909 40 40v0z" />
<glyph unicode="&#xe93c;" glyph-name="drop_down03" d="M512 192c-8.821 0.038-16.793 3.64-22.558 9.438l-416.002 416.002c-4.783 5.559-7.695 12.847-7.695 20.815 0 17.673 14.327 32 32 32 7.968 0 15.255-2.912 20.857-7.73l-0.042 0.035 393.44-393.28 393.44 393.28c5.559 4.783 12.847 7.695 20.815 7.695 17.673 0 32-14.327 32-32 0-7.968-2.912-15.255-7.73-20.857l0.035 0.042-416-416c-5.767-5.8-13.739-9.402-22.553-9.44h-0.007z" />
<glyph unicode="&#xe93d;" glyph-name="axis_x" d="M244.96 142.24c5.24-3.898 11.839-6.24 18.985-6.24 0.019 0 0.039 0 0.058 0h-0.003c0.012 0 0.026 0 0.041 0 10.503 0 19.825 5.060 25.659 12.876l0.060 0.084 222.24 301.12 222.24-301.12c5.895-7.9 15.216-12.96 25.719-12.96 0.014 0 0.029 0 0.043 0h-0.002c0.016 0 0.036 0 0.055 0 7.146 0 13.745 2.342 19.070 6.301l-0.086-0.061c7.926 5.893 13.006 15.23 13.006 25.753 0 7.173-2.36 13.795-6.346 19.131l0.060-0.084-233.92 316.96 233.92 316.96c3.918 5.253 6.273 11.871 6.273 19.040 0 17.691-14.342 32.033-32.033 32.033-10.523 0-19.86-5.074-25.7-12.908l-0.060-0.085-222.24-301.12-222.24 301.12c-5.9 7.919-15.237 12.993-25.76 12.993-17.691 0-32.033-14.342-32.033-32.033 0-7.169 2.355-13.787 6.333-19.125l-0.060 0.085 233.92-316.96-233.92-316.96c-3.926-5.252-6.286-11.874-6.286-19.047 0-10.523 5.080-19.86 12.921-25.692l0.085-0.061zM950.56 86.56l-64 64c-5.559 4.783-12.847 7.695-20.815 7.695-17.673 0-32-14.327-32-32 0-7.968 2.912-15.255 7.73-20.857l-0.035 0.042 9.28-9.44h-754.72c-17.673 0-32-14.327-32-32s14.327-32 32-32v0h832c0.020 0 0.043 0 0.067 0 13.227 0 24.579 8.025 29.454 19.471l0.079 0.209c1.523 3.6 2.408 7.785 2.408 12.178 0 8.874-3.612 16.904-9.446 22.701l-0.002 0.002z" />
<glyph unicode="&#xe93e;" glyph-name="axis_y" d="M868 856.96c-5.426 4.372-12.403 7.018-19.998 7.018-10.067 0-19.049-4.649-24.915-11.917l-0.048-0.061-231.040-288.8-231.040 288c-5.905 6.885-14.614 11.22-24.335 11.22-17.673 0-32-14.327-32-32 0-7.249 2.41-13.935 6.473-19.3l-0.058 0.080 248.96-310.4v-436.8c0-17.673 14.327-32 32-32s32 14.327 32 32v0 436.8l248.96 311.2c4.372 5.426 7.018 12.403 7.018 19.998 0 10.067-4.649 19.049-11.917 24.915l-0.061 0.048zM259.2 809.6l-64 48c-5.281 3.996-11.96 6.4-19.2 6.4-17.673 0-32-14.327-32-32v0-768c0-17.673 14.327-32 32-32s32 14.327 32 32v0 704l12.8-9.6c5.281-3.996 11.96-6.4 19.2-6.4 17.673 0 32 14.327 32 32 0 10.433-4.993 19.7-12.72 25.542l-0.080 0.058z" />
<glyph unicode="&#xe93f;" glyph-name="location" d="M797.76 682.24c-48.126 112.441-157.822 189.789-285.584 189.789-85.549 0-162.998-34.68-219.055-90.749v0c-27.929-27.516-50.518-60.364-66.129-96.904l-0.751-1.976c-15.678-35.751-24.802-77.421-24.802-121.222 0-0.414 0.001-0.828 0.002-1.241v0.064c0-49.28 22.56-115.040 68.8-200.96 43.688-79.104 86.061-145.494 132.057-209.092l-4.057 5.892c4.941-6.822 12.374-11.578 20.938-12.936l0.182-0.024c1.164-0.16 2.508-0.252 3.874-0.252 7.241 0 13.881 2.572 19.056 6.852l-0.050-0.040c7.526 6.295 12.279 15.69 12.279 26.194 0 7.535-2.445 14.498-6.585 20.141l0.067-0.095c-40.245 55.618-81.083 119.759-118.203 186.259l-5.157 10.061c-27.68 51.36-60.64 122.4-60.64 168-0.001 0.237-0.001 0.518-0.001 0.799 0 67.561 27.531 128.691 71.985 172.785l0.016 0.016c45.084 44.951 107.296 72.745 176 72.745s130.916-27.794 176.006-72.751l-0.006 0.006c44.376-44.095 71.842-105.161 71.842-172.643 0-0.336-0.001-0.673-0.002-1.009v0.052c0-37.28-21.92-90.56-40.16-128-31.783-63.538-62.945-116.589-97.148-167.425l3.388 5.345c-62.72-96-125.76-176-137.92-192-4.574-5.749-7.338-13.115-7.338-21.126 0-9.762 4.104-18.565 10.682-24.778l0.016-0.015c5.372-4.969 12.584-8.016 20.508-8.016 9.824 0 18.554 4.685 24.078 11.942l0.054 0.074 1.28 1.6c22.72 28.96 81.92 106.4 140.16 194.72 32.441 47.777 65.047 103.35 94.092 161.023l3.988 8.737c32 65.6 47.040 117.44 47.040 158.4 0 0.2 0.001 0.436 0.001 0.673 0 43.755-9.124 85.378-25.573 123.072l0.772-1.985zM662.88 529.6c0 91.2-67.84 165.44-151.040 165.44s-150.88-74.24-150.88-165.44 67.68-165.6 151.040-165.6 150.88 74.4 150.88 165.6zM422.88 529.6c0 55.040 39.68 99.68 88.32 99.68 23.001-0.156 43.731-9.749 58.536-25.095l0.024-0.025c18.413-18.914 29.768-44.779 29.768-73.296 0-0.445-0.003-0.889-0.008-1.332l0.001 0.067c0-55.040-39.52-99.84-88.32-99.84s-87.68 44.8-87.68 99.84z" />
<glyph unicode="&#xe940;" glyph-name="authority" d="M525.6 4.48c-4.047-2.114-8.838-3.354-13.92-3.354s-9.873 1.24-14.089 3.435l0.169-0.080c-5.28 2.56-10.4 5.28-16 8.16-59.724 33.613-111.322 70.219-158.723 111.518l1.123-0.958c-109.6 96.48-176.64 205.44-176.64 324.8v333.44c0 0.025 0 0.055 0 0.085 0 14.53 9.984 26.729 23.466 30.109l0.214 0.045 332.96 83.36c2.26 0.534 4.854 0.84 7.52 0.84s5.26-0.306 7.75-0.885l-0.23 0.045 332.96-83.36c13.696-3.426 23.68-15.624 23.68-30.155 0-0.030 0-0.060 0-0.090v0.005-333.44c0-120-67.040-228.8-177.12-325.12-50.577-44.256-107.341-83.716-168.242-116.481l-4.878-2.399zM547.2 88.8c41.632 26.024 77.686 52.867 111.414 82.307l-1.014-0.867c97.92 85.76 155.84 179.68 155.84 277.76v309.12l-301.44 74.88-302.080-74.88v-309.12c0-98.4 57.92-192 155.84-278.24 42.931-37.197 90.809-70.999 141.873-99.814l4.367-2.266c10.72 5.92 22.72 12.96 35.52 21.12zM590.88 325.92v0c0.833-0.102 1.798-0.16 2.776-0.16 13.343 0 24.16 10.817 24.16 24.16s-10.817 24.16-24.16 24.16c-0.978 0-1.943-0.058-2.89-0.171l0.115 0.011h-54.4v107.2c52.668 9.573 92.134 54.927 92.48 109.563v0.037c0 64.595-52.365 116.96-116.96 116.96s-116.96-52.365-116.96-116.96v0c0.349-48.657 31.671-89.908 75.214-105.042l0.786-0.238v-264c1.201-16.243 14.674-28.967 31.12-28.967s29.919 12.724 31.114 28.864l0.006 0.103v30.4h54.72c0.833-0.102 1.798-0.16 2.776-0.16 13.343 0 24.16 10.817 24.16 24.16s-10.817 24.16-24.16 24.16c-0.978 0-1.943-0.058-2.89-0.171l0.115 0.011h-54.72v28.96zM570.080 590.88c-0.626-29.384-24.593-52.964-54.068-52.964-0.229 0-0.458 0.001-0.686 0.004h0.035c-29.349 0.648-53.092 23.778-54.713 52.814l-0.007 0.146c0.447 29.436 24.414 53.126 53.914 53.126 0.283 0 0.566-0.002 0.848-0.007l-0.043 0.001c0.767 0.040 1.666 0.063 2.57 0.063 28.807 0 52.16-23.353 52.16-52.16 0-0.36-0.004-0.719-0.011-1.077l0.001 0.054z" />
<glyph unicode="&#xe941;" glyph-name="group" d="M772.8 389.92l-56.48 113.6c26.437 36.743 42.279 82.65 42.279 132.256 0 1.485-0.014 2.967-0.042 4.445l0.003-0.221c0 123.84-96 224-214.56 224s-213.76-100.16-213.76-224c-0.038-1.502-0.059-3.27-0.059-5.043 0-60.786 25.146-115.698 65.603-154.902l0.056-0.054-48-83.68c-15.649 4.594-33.701 7.481-52.346 7.994l-0.294 0.006c-97.12 0-179.2-85.6-179.2-186.72s82.080-185.6 179.2-185.6 179.36 85.6 179.36 186.88c0.012 0.762 0.018 1.661 0.018 2.561 0 55.36-25.238 104.825-64.836 137.517l-0.302 0.242 40 76c25.135-14.481 55.275-23.024 87.411-23.024 2.514 0 5.016 0.052 7.505 0.156l-0.356-0.012c47.023 2.383 89.872 18.463 125.129 44.294l-0.649-0.454 40-80c-47.483-25.642-79.348-74.786-79.999-131.43l-0.001-0.090c-0.051-1.408-0.080-3.063-0.080-4.724 0-77.055 62.465-139.52 139.52-139.52s139.52 62.465 139.52 139.52c0 1.661-0.029 3.316-0.087 4.963l0.007-0.239c0.045 1.33 0.071 2.893 0.071 4.462 0 75.624-59.552 137.339-134.319 140.806l-0.312 0.012zM548.8 468.16c-86.56 0-160 76.64-160 167.36 0 96 68.48 167.36 160 167.36 86.4 0 160-76.64 160-167.36s-72.96-167.36-159.36-167.36zM294.56 349.76c69.247-1.857 124.673-58.434 124.673-127.957 0-1.028-0.012-2.053-0.036-3.075l0.003 0.152c0-69.76-58.24-131.040-124.64-131.040s-124.48 61.28-124.48 131.040c-0.021 0.867-0.033 1.888-0.033 2.912 0 69.691 55.696 126.374 125.005 127.966l0.148 0.003zM772.96 155.68c-1.386-0.077-3.008-0.121-4.64-0.121-49.308 0-89.28 39.972-89.28 89.28s39.972 89.28 89.28 89.28c49.308 0 89.28-39.972 89.28-89.28 0-0.014 0-0.028 0-0.041v0.002c0.014-0.589 0.022-1.282 0.022-1.978 0-47.042-37.25-85.383-83.863-87.137l-0.16-0.005z" />
<glyph unicode="&#xe942;" glyph-name="selected" d="M368 457.76c-5.688 8.323-15.135 13.716-25.841 13.716-17.231 0-31.2-13.969-31.2-31.2 0-9.78 4.5-18.51 11.543-24.23l0.058-0.045 104-113.44c5.829-6.041 13.996-9.793 23.040-9.793s17.211 3.752 23.031 9.783l0.009 0.010 228.8 249.6c7.1 5.766 11.601 14.495 11.601 24.276 0 17.231-13.969 31.2-31.2 31.2-10.706 0-20.152-5.392-25.771-13.608l-0.069-0.107-205.92-224zM512 832c212.077 0 384-171.923 384-384s-171.923-384-384-384c-212.077 0-384 171.923-384 384v0c0 212.077 171.923 384 384 384v0zM512 896c-247.424 0-448-200.576-448-448s200.576-448 448-448c247.424 0 448 200.576 448 448v0c0 247.424-200.576 448-448 448v0z" />
<glyph unicode="&#xe943;" glyph-name="check" d="M125.12 457.12c-0.003 0-0.007 0-0.011 0-9.28 0-17.721-3.591-24.009-9.459l0.021 0.019c-7.22-6.527-11.738-15.928-11.738-26.383 0-9.35 3.612-17.856 9.518-24.198l-0.020 0.022 241.76-263.68c6.706-6.8 16.021-11.012 26.32-11.012s19.614 4.212 26.316 11.008l0.004 0.004 531.84 580.32c5.869 6.295 9.472 14.77 9.472 24.087 0 0.532-0.012 1.062-0.035 1.588l0.003-0.075c-0.907 19.070-16.589 34.189-35.802 34.189-10.371 0-19.713-4.405-26.258-11.446l-0.020-0.022-505.6-551.52-215.36 234.88c-6.194 6.815-14.942 11.214-24.72 11.677l-0.080 0.003z" />
<glyph unicode="&#xe944;" glyph-name="link" d="M704 868c-0.511 0.004-1.114 0.006-1.719 0.006-64.426 0-122.785-25.974-165.177-68.022l0.016 0.016-112-110.56c-1.604-1.594-2.597-3.802-2.597-6.242 0-4.86 3.94-8.8 8.8-8.8 0.069 0 0.138 0.001 0.207 0.002h-0.010c0.535 0.004 1.167 0.007 1.8 0.007 19.521 0 38.483-2.394 56.607-6.906l-1.608 0.339c0.691-0.207 1.485-0.326 2.308-0.326 2.282 0 4.35 0.919 5.853 2.407l-0.001-0.001 85.76 84.48c30.899 30.372 73.306 49.122 120.092 49.122 0.305 0 0.61-0.001 0.915-0.002h-0.047c91.776-0.165 166.111-74.601 166.111-166.4 0-1.125-0.011-2.248-0.033-3.368l0.003 0.168c-0.785-46.428-19.967-88.228-50.548-118.548l-0.012-0.012-1.44-1.28-108.8-106.56c-30.752-30.348-73.021-49.092-119.668-49.092-42.751 0-81.824 15.743-111.74 41.748l0.208-0.177c-3.097 2.626-7.14 4.223-11.555 4.223-4.916 0-9.369-1.979-12.607-5.184l0.001 0.001-17.76-17.28c-4.357-3.983-7.107-9.662-7.2-15.983v-0.017c0.177-5.031 2.421-9.505 5.903-12.625l0.017-0.015c41.139-36.517 95.611-58.822 155.293-58.822 64.213 0 122.395 25.82 164.731 67.645l-0.023-0.023 110.72 108.32c42.75 42.4 69.216 101.162 69.216 166.106 0 63.101-24.985 120.366-65.602 162.443l0.066-0.069c-41.715 42.76-99.906 69.28-164.291 69.28-0.066 0-0.133 0-0.199 0h0.010zM536.32 227.52c-0.701 0.205-1.506 0.323-2.339 0.323-2.402 0-4.575-0.98-6.141-2.562l-0.001-0.001-85.6-84.32c-30.899-30.372-73.306-49.122-120.092-49.122-0.305 0-0.61 0.001-0.915 0.002h0.047c-0.061 0-0.132 0-0.204 0-91.9 0-166.4 74.5-166.4 166.4 0 1.35 0.016 2.697 0.048 4.039l-0.004-0.199c0.664 47.117 20.458 89.485 51.946 119.788l0.054 0.052 108.8 106.56c30.752 30.348 73.021 49.092 119.668 49.092 42.751 0 81.824-15.743 111.74-41.748l-0.208 0.177c3.174-2.904 7.419-4.684 12.080-4.684s8.906 1.779 12.094 4.696l-0.014-0.012 17.76 17.28c4.357 3.983 7.107 9.662 7.2 15.983v0.017c-0.177 5.031-2.421 9.505-5.903 12.625l-0.017 0.015c-41.139 36.517-95.611 58.822-155.293 58.822-64.213 0-122.395-25.82-164.731-67.645l0.023 0.023-110.72-108.32c-42.75-42.4-69.216-101.162-69.216-166.106 0-63.101 24.985-120.366 65.602-162.443l-0.066 0.069c41.628-42.189 99.438-68.323 163.352-68.323 0.396 0 0.793 0.001 1.189 0.003h-0.061c0.511-0.004 1.114-0.006 1.719-0.006 64.426 0 122.785 25.974 165.177 68.022l-0.016-0.016 112 110.080c1.628 1.598 2.637 3.822 2.637 6.281 0 1.257-0.264 2.453-0.739 3.535l0.022-0.056c-1.413 3.319-4.647 5.603-8.414 5.603-0.079 0-0.158-0.001-0.237-0.003h0.012c-0.989-0.015-2.155-0.024-3.324-0.024-18.63 0-36.741 2.225-54.081 6.424l1.564-0.32z" />
<glyph unicode="&#xe945;" glyph-name="template" d="M385.6 459.68h-214.72c-5.655 0-10.24 4.585-10.24 10.24v0 320c0 5.655 4.585 10.24 10.24 10.24v0h214.72c5.655 0 10.24-4.585 10.24-10.24v0-320c0-5.655-4.585-10.24-10.24-10.24v0zM96 844v-428c0-11.311 9.169-20.48 20.48-20.48v0h322.88c11.311 0 20.48 9.169 20.48 20.48v0 428c-0.269 11.102-9.332 20-20.474 20-0.002 0-0.004 0-0.006 0h-322.24c-0.192 0.006-0.418 0.010-0.645 0.010-11.146 0-20.212-8.903-20.474-19.986v-0.024zM385.6 96h-214.72c-5.655 0-10.24 4.585-10.24 10.24v0 112c0 5.655 4.585 10.24 10.24 10.24v0h214.72c5.655 0 10.24-4.585 10.24-10.24v0-112c0-5.655-4.585-10.24-10.24-10.24v0zM96 267.84v-211.84c0.173-13.299 10.994-24.013 24.318-24.013 0.282 0 0.563 0.005 0.843 0.014l-0.041-0.001h314.24c13.52 0 24.48 10.96 24.48 24.48v0 211.36c-0.090 13.484-10.996 24.39-24.471 24.48h-314.249c-0.191 0.005-0.415 0.008-0.64 0.008-13.52 0-24.48-10.96-24.48-24.48 0-0.003 0-0.006 0-0.009v0zM638.4 436.32h214.72c5.655 0 10.24-4.585 10.24-10.24v0-320c0-5.655-4.585-10.24-10.24-10.24v0h-214.72c-5.655 0-10.24 4.585-10.24 10.24v0 320c0 5.655 4.585 10.24 10.24 10.24v0zM928 70.4v391.040c0 0.047 0 0.104 0 0.16 0 21.384-17.336 38.72-38.72 38.72 0 0 0 0 0 0h-286.24c-21.473 0-38.88-17.407-38.88-38.88v0-391.040c0.271-21.265 17.573-38.4 38.877-38.4 0.001 0 0.002 0 0.003 0h285.6c0.191-0.003 0.416-0.005 0.641-0.005 21.274 0 38.54 17.157 38.719 38.388v0.017zM638.4 800h214.72c5.655 0 10.24-4.585 10.24-10.24v0-112c0-5.655-4.585-10.24-10.24-10.24v0h-214.72c-5.655 0-10.24 4.585-10.24 10.24v0 112c0 5.655 4.585 10.24 10.24 10.24v0zM928 624v220c-0.263 11.107-9.329 20.010-20.475 20.010-0.227 0-0.453-0.004-0.678-0.011l0.033 0.001h-322.24c-11.311 0-20.48-9.169-20.48-20.48v0-219.52c0-11.311 9.169-20.48 20.48-20.48v0h322.24c0.191-0.006 0.415-0.010 0.64-0.010 11.311 0 20.48 9.169 20.48 20.48 0 0.004 0 0.007 0 0.011v-0.001z" />
</font>
</defs>
</svg>
